<svg width="474" height="754" viewBox="0 0 474 754" fill="none" xmlns="http://www.w3.org/2000/svg">
<path d="M274.493 119.196L288.772 189.623L226.848 238.107L301.951 312.027L461.626 344.447L268.762 460.174L440.883 419.351L437.503 498.829L538.949 547.534L419.523 662.549L530.664 702.89L609.683 665.731C609.683 665.731 676.67 797.724 674.678 796.087C672.687 794.451 444.413 733.221 444.413 733.221L555.933 615.616L348.993 635.556L502.02 478.724L225.375 385.039L358.156 300.727L208.443 289.367L127.858 237.494L274.493 119.196Z" stroke="url(#paint0_linear_117_1888)" stroke-width="2.1" stroke-miterlimit="10"/>
<path d="M528.135 851.399L530.664 702.89L444.413 733.221L419.523 662.549L484.624 642.448L538.949 547.534L453.288 559.311L437.503 498.829L370.012 519.577L440.883 419.351L336.947 487.845L268.762 460.175L225.375 385.039L461.627 344.447M461.627 344.447L358.156 300.727L290.77 230.2M461.627 344.447L290.77 230.2M461.627 344.447L444.151 118.172M290.77 230.2L288.765 189.623L127.858 237.494L278.213 -56.6919M290.77 230.2L403.246 215.928L444.151 118.172M278.213 -56.6919L444.151 118.172M278.213 -56.6919L530.526 -76.5212M278.213 -56.6919L201.546 10.0048L274.493 119.196L395.406 66.8069L530.526 -76.5212M444.151 118.172L530.526 -76.5212" stroke="#78B9D6" stroke-width="1.6" stroke-linejoin="bevel"/>
<path d="M528.135 851.399L530.664 702.89L444.413 733.221L419.523 662.549L484.624 642.448L538.949 547.534L453.288 559.311L437.503 498.829L370.012 519.577L440.883 419.351L336.947 487.845L268.762 460.175L225.375 385.039L488.213 276.892L358.156 300.727L290.77 230.2M290.77 230.2L288.765 189.623L127.858 237.494L278.213 -56.6919M290.77 230.2L403.246 215.928L444.151 118.172M290.77 230.2L486.844 277.454L444.151 118.172M278.213 -56.6919L444.151 118.172M278.213 -56.6919L530.526 -76.5212M278.213 -56.6919L201.546 10.0048L274.493 119.196L395.406 66.8069L530.526 -76.5212M444.151 118.172L530.526 -76.5212" stroke="url(#paint1_linear_117_1888)" stroke-width="2.1" stroke-miterlimit="10"/>
<path d="M290.77 230.2L301.951 312.027L358.156 300.727" stroke="#78B9D6" stroke-width="1.5" stroke-linejoin="bevel"/>
<path d="M348.993 635.556L432.59 593.543L502.02 478.724" stroke="url(#paint2_radial_117_1888)" stroke-width="1.5" stroke-linejoin="bevel"/>
<path d="M530.664 702.89L484.624 642.448L609.683 665.731L555.534 615.812L538.949 547.534L370.012 519.577L502.021 478.724L226.062 493.513L225.375 385.039L301.951 312.027L208.443 289.367L226.848 238.107L287.803 189.879L403.246 215.928" stroke="url(#paint3_radial_117_1888)" stroke-width="1.5" stroke-linejoin="bevel"/>
<path d="M336.947 487.845L437.503 498.829" stroke="#78B9D6" stroke-width="1.5" stroke-linejoin="bevel"/>
<path d="M439.9 420.009L461.463 344.477" stroke="#78B9D6" stroke-width="1.5" stroke-linejoin="bevel"/>
<path d="M441.734 421.214C440.398 421.575 438.924 421.038 438.453 420.009C437.981 418.985 438.682 417.855 440.025 417.494C441.361 417.133 442.835 417.67 443.306 418.699C443.778 419.723 443.077 420.852 441.734 421.214Z" fill="#C0ECFF"/>
<path d="M445.271 735.079C443.929 735.44 442.461 734.903 441.99 733.874C441.518 732.85 442.219 731.72 443.562 731.359C444.898 730.997 446.365 731.534 446.843 732.564C447.315 733.588 446.614 734.717 445.271 735.079Z" fill="#C0ECFF"/>
<path d="M637.972 49.7486L621.283 -42.6157L278.213 -56.692M637.972 49.7486L278.213 -56.692M637.972 49.7486L345.285 13.9906L71.1809 109.809L226.848 238.107L274.493 119.196L278.213 -56.692" stroke="url(#paint4_radial_117_1888)" stroke-width="1.5" stroke-linejoin="bevel"/>
<path d="M432.59 593.543L370.346 519.908" stroke="url(#paint5_linear_117_1888)" stroke-width="2.1" stroke-miterlimit="10"/>
<path d="M403.246 215.928L274.493 119.196L444.695 117.811L403.246 215.928Z" stroke="url(#paint6_linear_117_1888)" stroke-width="2.1" stroke-miterlimit="10"/>
<path opacity="0.58" d="M128.847 235.772L72.7071 109.277L274.493 119.196L128.847 235.772Z" stroke="url(#paint7_linear_117_1888)" style="mix-blend-mode:lighten" stroke-width="2.1" stroke-miterlimit="10"/>
<path d="M225.014 493.673L348.993 635.556L370.012 519.577L336.947 487.845" stroke="url(#paint8_linear_117_1888)" stroke-width="2.1" stroke-miterlimit="10"/>
<path d="M227.274 387.168C225.63 387.865 223.567 387.414 222.656 386.154C221.746 384.894 222.335 383.312 223.98 382.614C225.624 381.917 227.687 382.369 228.597 383.629C229.508 384.889 228.918 386.475 227.274 387.168Z" fill="#8FD7FF"/>
<path d="M209.871 291.781C208.227 292.474 206.164 292.022 205.253 290.762C204.343 289.507 204.932 287.921 206.576 287.223C208.22 286.525 210.283 286.982 211.194 288.237C212.104 289.497 211.515 291.083 209.871 291.781Z" fill="#8FD7FF"/>
<path d="M292.316 232.213C291.078 232.745 289.506 232.399 288.818 231.445C288.13 230.496 288.582 229.291 289.827 228.764C291.065 228.237 292.63 228.584 293.318 229.537C294.012 230.486 293.56 231.686 292.316 232.213Z" fill="#B8E9FF"/>
<path d="M289.348 191.631C288.104 192.158 286.538 191.812 285.851 190.863C285.163 189.909 285.608 188.709 286.853 188.182C288.097 187.655 289.663 187.996 290.351 188.95C291.038 189.904 290.586 191.104 289.348 191.631Z" fill="#8FD7FF"/>
<path d="M130.498 239.834C128.487 240.687 125.959 240.13 124.845 238.589C123.732 237.053 124.459 235.115 126.47 234.261C128.474 233.408 131.002 233.965 132.116 235.506C133.229 237.043 132.502 238.98 130.498 239.834Z" fill="#8FD7FF"/>
<path d="M73.1329 111.616C71.4889 112.314 69.4256 111.857 68.5152 110.597C67.6047 109.342 68.2008 107.756 69.8383 107.058C71.4823 106.36 73.5521 106.817 74.456 108.077C75.3665 109.332 74.777 110.918 73.1329 111.616Z" fill="#8FD7FF"/>
<path d="M397.056 69.0859C395.412 69.7837 393.343 69.3268 392.432 68.0668C391.522 66.8118 392.118 65.2255 393.762 64.5277C395.399 63.8299 397.469 64.2867 398.38 65.5417C399.29 66.8018 398.694 68.3881 397.056 69.0859Z" fill="#8FD7FF"/>
<path d="M346.936 16.2649C345.292 16.9627 343.222 16.5108 342.312 15.2508C341.408 13.9908 341.997 12.4094 343.641 11.7116C345.279 11.0138 347.349 11.4707 348.259 12.7257C349.17 13.9857 348.574 15.5721 346.936 16.2649Z" fill="#8FD7FF"/>
<path d="M204.028 12.1482C202.384 12.846 200.314 12.3892 199.404 11.1342C198.493 9.87417 199.089 8.2878 200.733 7.59001C202.371 6.89222 204.441 7.34906 205.351 8.6091C206.262 9.86411 205.666 11.4504 204.028 12.1482Z" fill="#8FD7FF"/>
<path d="M272.502 117.982C273.511 116.757 275.626 116.395 277.224 117.168C278.816 117.946 279.294 119.568 278.279 120.793C277.264 122.013 275.148 122.374 273.556 121.601C271.958 120.823 271.487 119.201 272.502 117.982Z" fill="#8FD7FF"/>
<path d="M224.386 235.752C225.394 234.527 227.51 234.166 229.108 234.944C230.7 235.717 231.178 237.339 230.163 238.564C229.147 239.788 227.032 240.15 225.44 239.372C223.842 238.594 223.37 236.977 224.386 235.752Z" fill="#8FD7FF"/>
<path d="M401.314 214.598C402.277 213.784 403.914 213.719 404.975 214.452C406.043 215.185 406.128 216.44 405.172 217.253C404.216 218.072 402.578 218.137 401.511 217.404C400.449 216.671 400.358 215.416 401.314 214.598Z" fill="#C0ECFF"/>
<path d="M270.825 462.449C269.187 463.146 267.118 462.695 266.207 461.435C265.297 460.175 265.893 458.593 267.53 457.895C269.174 457.198 271.244 457.65 272.154 458.91C273.065 460.17 272.469 461.751 270.825 462.449Z" fill="#8FD7FF"/>
<path d="M228.184 496.455C226.069 497.353 223.396 496.766 222.217 495.139C221.045 493.518 221.811 491.47 223.933 490.566C226.049 489.668 228.721 490.255 229.9 491.881C231.073 493.508 230.307 495.551 228.184 496.455Z" fill="#8FD7FF"/>
<path d="M359.8 303.006C358.163 303.699 356.093 303.247 355.182 301.987C354.272 300.732 354.868 299.146 356.512 298.448C358.15 297.75 360.219 298.207 361.13 299.462C362.04 300.722 361.444 302.309 359.8 303.006Z" fill="#8FD7FF"/>
<path d="M303.51 314.206C301.865 314.904 299.802 314.447 298.892 313.192C297.981 311.932 298.571 310.346 300.215 309.648C301.859 308.95 303.922 309.407 304.833 310.667C305.743 311.922 305.154 313.508 303.51 314.206Z" fill="#8FD7FF"/>
<path d="M463.114 346.756C461.469 347.454 459.4 347.002 458.496 345.742C457.585 344.482 458.175 342.901 459.819 342.203C461.463 341.505 463.526 341.957 464.437 343.217C465.347 344.477 464.751 346.058 463.114 346.756Z" fill="#8FD7FF"/>
<path d="M371.656 521.856C370.012 522.554 367.948 522.097 367.038 520.842C366.127 519.582 366.723 517.996 368.361 517.298C370.005 516.6 372.075 517.057 372.985 518.317C373.889 519.572 373.3 521.158 371.656 521.856Z" fill="#8FD7FF"/>
<path d="M439.01 501.254C437.365 501.952 435.302 501.495 434.392 500.24C433.481 498.98 434.071 497.394 435.715 496.696C437.359 495.998 439.422 496.455 440.333 497.715C441.243 498.97 440.654 500.556 439.01 501.254Z" fill="#8FD7FF"/>
<path d="M455.817 560.887C454.179 561.585 452.109 561.128 451.199 559.873C450.289 558.613 450.885 557.027 452.522 556.329C454.166 555.631 456.236 556.088 457.146 557.348C458.05 558.603 457.461 560.189 455.817 560.887Z" fill="#8FD7FF"/>
<path d="M434.235 595.822C432.597 596.515 430.527 596.063 429.617 594.803C428.706 593.548 429.302 591.962 430.946 591.264C432.584 590.566 434.654 591.023 435.564 592.278C436.475 593.538 435.879 595.124 434.235 595.822Z" fill="#8FD7FF"/>
<path d="M350.637 637.835C348.999 638.533 346.929 638.076 346.019 636.821C345.108 635.561 345.704 633.975 347.349 633.282C348.986 632.584 351.056 633.036 351.966 634.296C352.877 635.556 352.281 637.137 350.637 637.835Z" fill="#8FD7FF"/>
<path d="M421.167 664.828C419.523 665.526 417.46 665.069 416.549 663.809C415.639 662.554 416.229 660.967 417.873 660.27C419.517 659.572 421.58 660.029 422.49 661.289C423.401 662.544 422.811 664.13 421.167 664.828Z" fill="#8FD7FF"/>
<path d="M338.598 490.124C336.954 490.822 334.884 490.365 333.973 489.11C333.07 487.85 333.659 486.264 335.303 485.571C336.941 484.873 339.01 485.325 339.921 486.585C340.831 487.845 340.235 489.427 338.598 490.124Z" fill="#8FD7FF"/>
<path d="M440.981 419.045L358.156 300.727L270.235 460.37" stroke="#8FD7FF" stroke-width="1.7" stroke-miterlimit="10"/>
<g style="mix-blend-mode:overlay">
<path d="M298.191 214.628C309.798 217.946 315.693 227.851 311.363 236.741C307.033 245.637 294.11 250.155 282.51 246.837C270.904 243.519 265.009 233.614 269.338 224.723C273.668 215.828 286.591 211.31 298.191 214.628Z" fill="url(#paint9_radial_117_1888)" style="mix-blend-mode:screen"/>
<path d="M288.608 94.2067C306.287 99.2669 315.273 114.352 308.671 127.906C302.075 141.456 282.392 148.343 264.707 143.283C247.029 138.223 238.042 123.137 244.645 109.588C251.241 96.034 270.923 89.1514 288.608 94.2067Z" fill="url(#paint10_radial_117_1888)" style="mix-blend-mode:screen"/>
<path d="M240.171 212.956C257.856 218.016 266.836 233.102 260.24 246.656C253.638 260.205 233.955 267.093 216.27 262.032C198.592 256.972 189.605 241.887 196.207 228.338C202.81 214.783 222.493 207.901 240.171 212.956Z" fill="url(#paint11_radial_117_1888)" style="mix-blend-mode:screen"/>
<path d="M236.149 364.171C251.037 368.428 258.603 381.134 253.048 392.544C247.487 403.955 230.916 409.753 216.021 405.496C201.133 401.234 193.568 388.528 199.129 377.118C204.683 365.707 221.261 359.909 236.149 364.171Z" fill="url(#paint12_radial_117_1888)" style="mix-blend-mode:screen"/>
<path d="M449.804 474.442C467.482 479.502 476.469 494.587 469.866 508.136C463.264 521.691 443.581 528.573 425.903 523.518C408.218 518.458 399.238 503.372 405.834 489.823C412.436 476.269 432.119 469.386 449.804 474.442Z" fill="url(#paint13_radial_117_1888)" style="mix-blend-mode:screen"/>
<path d="M382.227 495.481C399.906 500.536 408.892 515.621 402.29 529.175C395.694 542.725 376.011 549.612 358.326 544.552C340.648 539.497 331.661 524.411 338.264 510.857C344.86 497.308 364.542 490.42 382.227 495.481Z" fill="url(#paint14_radial_117_1888)" style="mix-blend-mode:screen"/>
<path d="M372.416 269.347C394.535 275.672 405.775 294.548 397.515 311.505C389.262 328.458 364.634 337.073 342.508 330.747C320.389 324.417 309.149 305.541 317.402 288.589C325.662 271.631 350.29 263.016 372.416 269.347Z" fill="url(#paint15_radial_117_1888)" style="mix-blend-mode:color-dodge"/>
<path d="M475.997 313.87C498.117 320.2 509.357 339.076 501.104 356.028C492.844 372.986 468.216 381.601 446.09 375.27C423.971 368.94 412.731 350.064 420.991 333.112C429.244 316.154 453.872 307.539 475.997 313.87Z" fill="url(#paint16_radial_117_1888)" style="mix-blend-mode:color-dodge"/>
<path d="M87.8507 77.4445C109.977 83.7748 121.216 102.65 112.957 119.608C104.697 136.561 80.0692 145.175 57.9499 138.845C35.824 132.52 24.5842 113.644 32.8437 96.6864C41.1033 79.7336 65.7313 71.1192 87.8507 77.4445Z" fill="url(#paint17_radial_117_1888)" style="mix-blend-mode:color-dodge"/>
<path d="M240.97 467.343C259.585 472.67 269.037 488.548 262.094 502.81C255.144 517.077 234.427 524.321 215.818 519C197.203 513.673 187.745 497.795 194.694 483.528C201.644 469.266 222.362 462.017 240.97 467.343Z" fill="url(#paint18_radial_117_1888)" style="mix-blend-mode:color-dodge"/>
<path d="M142.615 208.453C163.634 214.467 174.317 232.399 166.47 248.513C158.624 264.623 135.22 272.805 114.201 266.791C93.1825 260.782 82.506 242.846 90.3464 226.736C98.1933 210.627 121.596 202.439 142.615 208.453Z" fill="url(#paint19_radial_117_1888)" style="mix-blend-mode:color-dodge"/>
<path d="M436.029 635.581C455.077 641.028 464.758 657.283 457.644 671.881C450.538 686.484 429.329 693.899 410.281 688.452C391.234 683 381.553 666.745 388.666 652.147C395.773 637.549 416.982 630.129 436.029 635.581Z" fill="url(#paint20_radial_117_1888)" style="mix-blend-mode:color-dodge"/>
<path opacity="0.23" d="M320.893 124.819C367.247 138.082 390.795 177.63 373.496 213.157C356.191 248.684 304.59 266.736 258.236 253.473C211.881 240.215 188.334 200.662 205.633 165.135C222.938 129.613 274.539 111.561 320.893 124.819Z" fill="url(#paint21_radial_117_1888)" style="mix-blend-mode:color-dodge"/>
<path opacity="0.23" d="M263.109 427.946C309.457 441.204 333.011 480.752 315.706 516.279C298.407 551.806 246.806 569.858 200.452 556.595C154.097 543.337 130.544 503.784 147.849 468.262C165.147 432.735 216.755 414.683 263.109 427.946Z" fill="url(#paint22_radial_117_1888)" style="mix-blend-mode:color-dodge"/>
<path opacity="0.23" d="M175.909 143.79C243.335 163.077 277.591 220.607 252.426 272.283C227.261 323.955 152.198 350.21 84.7788 330.923C17.3531 311.636 -16.9034 254.106 8.2617 202.434C33.4268 150.758 108.49 124.503 175.909 143.79Z" fill="url(#paint23_radial_117_1888)" style="mix-blend-mode:color-dodge"/>
<path opacity="0.33" d="M375.252 566.741C421.606 580.004 445.153 619.552 427.855 655.079C410.55 690.606 358.949 708.653 312.594 695.395C266.24 682.137 242.693 642.584 259.991 607.057C277.297 571.535 328.897 553.483 375.252 566.741Z" fill="url(#paint24_radial_117_1888)" style="mix-blend-mode:overlay"/>
<path d="M352.68 455.948C375.003 462.333 386.341 481.374 378.009 498.478C369.678 515.586 344.833 524.276 322.511 517.89C300.195 511.505 288.857 492.464 297.189 475.36C305.514 458.252 330.364 449.562 352.68 455.948Z" fill="url(#paint25_radial_117_1888)" style="mix-blend-mode:color-dodge"/>
<path d="M447.118 567.644C465.072 572.78 474.196 588.096 467.495 601.856C460.788 615.621 440.804 622.609 422.85 617.474C404.89 612.338 395.773 597.017 402.473 583.257C409.174 569.497 429.164 562.504 447.118 567.644Z" fill="url(#paint26_radial_117_1888)" style="mix-blend-mode:color-dodge"/>
<path opacity="0.41" d="M497.658 643.523C519.974 649.908 531.312 668.949 522.987 686.058C514.655 703.161 489.804 711.851 467.489 705.47C445.173 699.085 433.828 680.039 442.16 662.935C450.491 645.832 475.336 637.137 497.658 643.523Z" fill="url(#paint27_radial_117_1888)" style="mix-blend-mode:color-dodge"/>
<path d="M245.228 443.147C257.64 432.559 278.901 431.691 292.715 441.204C306.529 450.722 307.662 467.017 295.244 477.599C282.831 488.187 261.57 489.055 247.756 479.542C233.942 470.024 232.809 453.729 245.228 443.147Z" fill="url(#paint28_radial_117_1888)" style="mix-blend-mode:color-dodge"/>
<path d="M411.853 398.98C426.316 386.646 451.075 385.637 467.168 396.721C483.255 407.8 484.571 426.781 470.115 439.111C455.653 451.44 430.887 452.454 414.801 441.37C398.714 430.29 397.391 411.309 411.853 398.98Z" fill="url(#paint29_radial_117_1888)" style="mix-blend-mode:color-dodge"/>
<path d="M444.367 551.736C449.385 547.459 457.985 547.107 463.572 550.953C469.153 554.798 469.611 561.389 464.594 565.671C459.57 569.949 450.976 570.3 445.389 566.455C439.809 562.609 439.35 556.018 444.367 551.736Z" fill="url(#paint30_radial_117_1888)" style="mix-blend-mode:color-dodge"/>
<path d="M311.022 609.788C329.814 593.764 361.988 592.448 382.896 606.851C403.797 621.249 405.513 645.912 386.721 661.931C367.935 677.955 335.755 679.271 314.854 664.868C293.947 650.47 292.237 625.807 311.022 609.788Z" fill="url(#paint31_radial_117_1888)" style="mix-blend-mode:color-dodge"/>
<path d="M384.402 203.594C393.886 195.507 410.137 194.839 420.696 202.113C431.254 209.387 432.119 221.842 422.634 229.934C413.143 238.027 396.893 238.689 386.334 231.415C375.776 224.141 374.911 211.686 384.402 203.594Z" fill="url(#paint32_radial_117_1888)" style="mix-blend-mode:screen"/>
<path d="M198.33 282.399C203.347 278.117 211.947 277.765 217.528 281.616C223.115 285.461 223.573 292.052 218.55 296.33C213.532 300.612 204.939 300.963 199.351 297.118C193.764 293.267 193.306 286.681 198.33 282.399Z" fill="url(#paint33_radial_117_1888)" style="mix-blend-mode:color-dodge"/>
<path d="M462.301 626.309C473.928 616.389 493.846 615.576 506.782 624.492C519.719 633.402 520.78 648.663 509.153 658.578C497.521 668.498 477.609 669.311 464.672 660.395C451.736 651.485 450.675 636.224 462.301 626.309Z" fill="url(#paint34_radial_117_1888)" style="mix-blend-mode:color-dodge"/>
</g>
<defs>
<linearGradient id="paint0_linear_117_1888" x1="293.081" y1="111.302" x2="597.751" y2="828.756" gradientUnits="userSpaceOnUse">
<stop stop-color="#0054FF" stop-opacity="0"/>
<stop offset="1" stop-color="#1E86FF"/>
</linearGradient>
<linearGradient id="paint1_linear_117_1888" x1="206.315" y1="874.674" x2="139.564" y2="-48.2453" gradientUnits="userSpaceOnUse">
<stop stop-color="#0054FF" stop-opacity="0"/>
<stop offset="1" stop-color="#0076FF"/>
</linearGradient>
<radialGradient id="paint2_radial_117_1888" cx="0" cy="0" r="1" gradientTransform="matrix(43.7835 60.5636 -79.0212 33.5567 425.507 557.141)" gradientUnits="userSpaceOnUse">
<stop offset="0.014" stop-color="white"/>
<stop offset="1" stop-color="#2E9DDB" stop-opacity="0.5"/>
</radialGradient>
<radialGradient id="paint3_radial_117_1888" cx="0" cy="0" r="1" gradientTransform="matrix(133.139 184.164 -240.291 102.04 387.57 455.583)" gradientUnits="userSpaceOnUse">
<stop offset="0.014" stop-color="white"/>
<stop offset="1" stop-color="#2E9DDB" stop-opacity="0.5"/>
</radialGradient>
<radialGradient id="paint4_radial_117_1888" cx="0" cy="0" r="1" gradientTransform="matrix(117.495 162.525 -212.056 90.0505 354.883 88.621)" gradientUnits="userSpaceOnUse">
<stop offset="0.014" stop-color="white"/>
<stop offset="1" stop-color="#2E9DDB" stop-opacity="0.5"/>
</radialGradient>
<linearGradient id="paint5_linear_117_1888" x1="379.883" y1="597.353" x2="374.26" y2="519.623" gradientUnits="userSpaceOnUse">
<stop stop-color="#0054FF" stop-opacity="0"/>
<stop offset="1" stop-color="#0076FF"/>
</linearGradient>
<linearGradient id="paint6_linear_117_1888" x1="287.436" y1="224.303" x2="279.807" y2="118.811" gradientUnits="userSpaceOnUse">
<stop stop-color="#0054FF" stop-opacity="0"/>
<stop offset="1" stop-color="#0076FF"/>
</linearGradient>
<linearGradient id="paint7_linear_117_1888" x1="88.64" y1="238.682" x2="79.246" y2="108.802" gradientUnits="userSpaceOnUse">
<stop stop-color="#0054FF" stop-opacity="0"/>
<stop offset="1" stop-color="#0076FF"/>
</linearGradient>
<linearGradient id="paint8_linear_117_1888" x1="243.426" y1="643.193" x2="232.573" y2="493.128" gradientUnits="userSpaceOnUse">
<stop stop-color="#0054FF" stop-opacity="0"/>
<stop offset="1" stop-color="#3FFFC9"/>
</linearGradient>
<radialGradient id="paint9_radial_117_1888" cx="0" cy="0" r="1" gradientTransform="matrix(7.84297 -16.1044 21.0124 6.01103 290.35 230.732)" gradientUnits="userSpaceOnUse">
<stop stop-color="#0076FF"/>
<stop offset="1" stop-opacity="0"/>
</radialGradient>
<radialGradient id="paint10_radial_117_1888" cx="0" cy="0" r="1" gradientTransform="matrix(11.9498 -24.5371 32.0151 9.15862 276.658 118.746)" gradientUnits="userSpaceOnUse">
<stop stop-color="#0076FF"/>
<stop offset="1" stop-opacity="0"/>
</radialGradient>
<radialGradient id="paint11_radial_117_1888" cx="0" cy="0" r="1" gradientTransform="matrix(11.9498 -24.5371 32.0151 9.15862 228.222 237.495)" gradientUnits="userSpaceOnUse">
<stop stop-color="#0076FF"/>
<stop offset="1" stop-opacity="0"/>
</radialGradient>
<radialGradient id="paint12_radial_117_1888" cx="0" cy="0" r="1" gradientTransform="matrix(10.0628 -20.6621 26.9591 7.71233 226.086 384.832)" gradientUnits="userSpaceOnUse">
<stop stop-color="#0076FF"/>
<stop offset="1" stop-opacity="0"/>
</radialGradient>
<radialGradient id="paint13_radial_117_1888" cx="0" cy="0" r="1" gradientTransform="matrix(11.9498 -24.5371 32.0151 9.15861 437.852 498.98)" gradientUnits="userSpaceOnUse">
<stop stop-color="#0076FF"/>
<stop offset="1" stop-opacity="0"/>
</radialGradient>
<radialGradient id="paint14_radial_117_1888" cx="0" cy="0" r="1" gradientTransform="matrix(11.9498 -24.5371 32.0151 9.15861 370.277 520.016)" gradientUnits="userSpaceOnUse">
<stop stop-color="#0076FF"/>
<stop offset="1" stop-opacity="0"/>
</radialGradient>
<radialGradient id="paint15_radial_117_1888" cx="0" cy="0" r="1" gradientTransform="matrix(14.9517 -30.7002 40.0565 11.4593 357.461 300.045)" gradientUnits="userSpaceOnUse">
<stop stop-color="#55B0FF"/>
<stop offset="0.412" stop-color="#55B0FF" stop-opacity="0"/>
</radialGradient>
<radialGradient id="paint16_radial_117_1888" cx="0" cy="0" r="1" gradientTransform="matrix(14.9517 -30.7002 40.0565 11.4593 461.044 344.57)" gradientUnits="userSpaceOnUse">
<stop stop-color="#55B0FF"/>
<stop offset="0.412" stop-color="#55B0FF" stop-opacity="0"/>
</radialGradient>
<radialGradient id="paint17_radial_117_1888" cx="0" cy="0" r="1" gradientTransform="matrix(14.9517 -30.7002 40.0565 11.4593 72.9009 108.147)" gradientUnits="userSpaceOnUse">
<stop stop-color="#55B0FF"/>
<stop offset="0.412" stop-color="#55B0FF" stop-opacity="0"/>
</radialGradient>
<radialGradient id="paint18_radial_117_1888" cx="0" cy="0" r="1" gradientTransform="matrix(12.5786 -25.8278 33.6991 9.64054 228.394 493.17)" gradientUnits="userSpaceOnUse">
<stop stop-color="#55B0FF"/>
<stop offset="0.412" stop-color="#55B0FF" stop-opacity="0"/>
</radialGradient>
<radialGradient id="paint19_radial_117_1888" cx="0" cy="0" r="1" gradientTransform="matrix(14.2063 -29.1701 38.0601 10.888 128.41 237.623)" gradientUnits="userSpaceOnUse">
<stop stop-color="#55B0FF"/>
<stop offset="0.412" stop-color="#55B0FF" stop-opacity="0"/>
</radialGradient>
<radialGradient id="paint20_radial_117_1888" cx="0" cy="0" r="1" gradientTransform="matrix(12.8747 -26.4357 34.4923 9.86745 423.155 662.015)" gradientUnits="userSpaceOnUse">
<stop stop-color="#55B0FF"/>
<stop offset="0.412" stop-color="#55B0FF" stop-opacity="0"/>
</radialGradient>
<radialGradient id="paint21_radial_117_1888" cx="0" cy="0" r="1" gradientTransform="matrix(31.3273 -64.3262 83.9304 24.01 289.565 189.148)" gradientUnits="userSpaceOnUse">
<stop stop-color="#55B0FF"/>
<stop offset="0.773" stop-color="#55B0FF" stop-opacity="0"/>
</radialGradient>
<radialGradient id="paint22_radial_117_1888" cx="0" cy="0" r="1" gradientTransform="matrix(31.3273 -64.3262 83.9304 24.01 231.779 492.27)" gradientUnits="userSpaceOnUse">
<stop stop-color="#55B0FF"/>
<stop offset="0.773" stop-color="#55B0FF" stop-opacity="0"/>
</radialGradient>
<radialGradient id="paint23_radial_117_1888" cx="0" cy="0" r="1" gradientTransform="matrix(45.5684 -93.5671 122.083 34.9246 130.344 237.356)" gradientUnits="userSpaceOnUse">
<stop stop-color="#55B0FF"/>
<stop offset="0.773" stop-color="#55B0FF" stop-opacity="0"/>
</radialGradient>
<radialGradient id="paint24_radial_117_1888" cx="0" cy="0" r="1" gradientTransform="matrix(31.3273 -64.3262 83.9304 24.01 343.924 631.069)" gradientUnits="userSpaceOnUse">
<stop stop-color="#0076FF"/>
<stop offset="0.773" stop-color="#55B0FF" stop-opacity="0"/>
</radialGradient>
<radialGradient id="paint25_radial_117_1888" cx="0" cy="0" r="1" gradientTransform="matrix(15.084 -30.9718 40.4109 11.5607 337.598 486.919)" gradientUnits="userSpaceOnUse">
<stop stop-color="#55B0FF"/>
<stop offset="0.27" stop-color="#55B0FF" stop-opacity="0"/>
</radialGradient>
<radialGradient id="paint26_radial_117_1888" cx="0" cy="0" r="1" gradientTransform="matrix(12.1345 -24.9161 32.5096 9.30018 434.982 592.559)" gradientUnits="userSpaceOnUse">
<stop stop-color="#55B0FF"/>
<stop offset="0.412" stop-color="#55B0FF" stop-opacity="0"/>
</radialGradient>
<radialGradient id="paint27_radial_117_1888" cx="0" cy="0" r="1" gradientTransform="matrix(15.084 -30.9718 40.4109 11.5607 482.573 674.497)" gradientUnits="userSpaceOnUse">
<stop stop-color="#0076FF"/>
<stop offset="1" stop-color="#FF54FF" stop-opacity="0"/>
</radialGradient>
<radialGradient id="paint28_radial_117_1888" cx="0" cy="0" r="1" gradientTransform="matrix(-25.0099 -17.2284 22.4789 -19.1681 270.236 460.373)" gradientUnits="userSpaceOnUse">
<stop stop-color="#55B0FF"/>
<stop offset="0.412" stop-color="#55B0FF" stop-opacity="0"/>
</radialGradient>
<radialGradient id="paint29_radial_117_1888" cx="0" cy="0" r="1" gradientTransform="matrix(-29.1298 -20.0667 26.1823 -22.3258 440.983 419.045)" gradientUnits="userSpaceOnUse">
<stop stop-color="#55B0FF"/>
<stop offset="0.248" stop-color="#55B0FF" stop-opacity="0"/>
</radialGradient>
<radialGradient id="paint30_radial_117_1888" cx="0" cy="0" r="1" gradientTransform="matrix(-10.1125 -6.96635 9.08944 -7.75049 454.48 558.704)" gradientUnits="userSpaceOnUse">
<stop stop-color="#55B0FF"/>
<stop offset="0.248" stop-color="#55B0FF" stop-opacity="0"/>
</radialGradient>
<radialGradient id="paint31_radial_117_1888" cx="0" cy="0" r="1" gradientTransform="matrix(-37.8505 -26.0737 34.02 -29.0095 348.873 635.859)" gradientUnits="userSpaceOnUse">
<stop stop-color="#55B0FF"/>
<stop offset="0.248" stop-color="#55B0FF" stop-opacity="0"/>
</radialGradient>
<radialGradient id="paint32_radial_117_1888" cx="0" cy="0" r="1" gradientTransform="matrix(-19.1168 -13.1686 17.182 -14.6516 403.516 216.765)" gradientUnits="userSpaceOnUse">
<stop stop-color="#0076FF"/>
<stop offset="0.605" stop-opacity="0"/>
</radialGradient>
<radialGradient id="paint33_radial_117_1888" cx="0" cy="0" r="1" gradientTransform="matrix(-10.1125 -6.96635 9.08943 -7.75049 208.44 289.365)" gradientUnits="userSpaceOnUse">
<stop stop-color="#55B0FF"/>
<stop offset="0.609" stop-color="#55B0FF" stop-opacity="0"/>
</radialGradient>
<radialGradient id="paint34_radial_117_1888" cx="0" cy="0" r="1" gradientTransform="matrix(-23.4248 -16.1365 21.0543 -17.9533 485.726 642.443)" gradientUnits="userSpaceOnUse">
<stop stop-color="#55B0FF"/>
<stop offset="0.389" stop-color="#55B0FF" stop-opacity="0"/>
</radialGradient>
</defs>
</svg>
