<svg width="46" height="46" viewBox="0 0 46 46" fill="none" xmlns="http://www.w3.org/2000/svg">
<path d="M15.3334 42.1667H30.6667C38.3717 42.1667 39.7517 39.0808 40.1542 35.3242L41.5917 19.9908C42.1092 15.3142 40.7676 11.5 32.5834 11.5H13.4167C5.23258 11.5 3.89091 15.3142 4.40841 19.9908L5.84591 35.3242C6.24841 39.0808 7.62841 42.1667 15.3334 42.1667Z" stroke="#134783" stroke-width="2.5" stroke-miterlimit="10" stroke-linecap="round" stroke-linejoin="round"/>
<path opacity="0.4" d="M15.3333 11.4999V9.96658C15.3333 6.57408 15.3333 3.83325 21.4666 3.83325H24.5333C30.6666 3.83325 30.6666 6.57408 30.6666 9.96658V11.4999" stroke="#134783" stroke-width="2.5" stroke-miterlimit="10" stroke-linecap="round" stroke-linejoin="round"/>
<g opacity="0.4">
<path d="M26.8334 24.9167V26.8333C26.8334 26.8525 26.8334 26.8525 26.8334 26.8717C26.8334 28.9608 26.8142 30.6667 23.0001 30.6667C19.2051 30.6667 19.1667 28.98 19.1667 26.8908V24.9167C19.1667 23 19.1667 23 21.0834 23H24.9167C26.8334 23 26.8334 23 26.8334 24.9167Z" stroke="#134783" stroke-width="2.5" stroke-miterlimit="10" stroke-linecap="round" stroke-linejoin="round"/>
<path d="M41.4958 21.0833C37.0683 24.3033 32.0083 26.2199 26.8333 26.8716" stroke="#134783" stroke-width="2.5" stroke-miterlimit="10" stroke-linecap="round" stroke-linejoin="round"/>
<path d="M5.02002 21.5999C9.33252 24.5515 14.2009 26.334 19.165 26.8899" stroke="#134783" stroke-width="2.5" stroke-miterlimit="10" stroke-linecap="round" stroke-linejoin="round"/>
</g>
</svg>
