<svg width="56" height="56" viewBox="0 0 56 56" fill="none" xmlns="http://www.w3.org/2000/svg">
<path d="M28 0C12.5607 0 0 12.5607 0 28C0 43.4391 12.5607 56 28 56C43.4393 56 56 43.4393 56 28C56 12.5604 43.4393 0 28 0ZM18.0383 47.2331C18.6481 48.5996 19.3176 49.8163 20.0368 50.8779C17.2323 49.8989 14.6616 48.4184 12.4321 46.5436C13.7592 45.4269 15.1878 44.4639 16.6966 43.6663C17.0952 44.9227 17.5409 46.1186 18.0383 47.2331ZM20.1791 42.166C22.6653 41.3205 25.2995 40.879 28.0002 40.879C30.7024 40.879 33.3363 41.32 35.8216 42.1651C33.9036 48.4292 30.8517 52.2244 28.0002 52.2244C25.1487 52.2242 22.0969 48.4295 20.1791 42.166ZM16.6966 12.3334C15.1878 11.5356 13.7592 10.5728 12.4321 9.4562C14.6616 7.58138 17.2323 6.10088 20.0366 5.12182C19.3173 6.18347 18.6479 7.40015 18.0381 8.76668C17.5409 9.88119 17.0952 11.0769 16.6966 12.3334ZM28 3.77535C30.8515 3.77535 33.9034 7.57053 35.8214 13.8347C33.3361 14.6797 30.7021 15.1208 28 15.1208C25.2993 15.1208 22.6651 14.6793 20.1789 13.8338C22.0969 7.57029 25.1487 3.77535 28 3.77535ZM37.9619 8.76645C37.3521 7.39992 36.6827 6.18324 35.9634 5.12159C38.768 6.10065 41.3387 7.58115 43.5679 9.45596C42.2408 10.5731 40.8122 11.5356 39.3036 12.3337C38.9051 11.0771 38.4591 9.88119 37.9619 8.76645ZM28 18.8963C31.0183 18.8963 33.9635 18.4213 36.7511 17.5079C37.2823 20.1019 37.6308 22.991 37.7316 26.112H18.2687C18.3697 22.9907 18.7179 20.1015 19.2491 17.5074C22.0374 18.4216 24.9831 18.8963 28 18.8963ZM37.7316 29.8876C37.6306 33.0088 37.2823 35.8978 36.7511 38.4919C33.9638 37.5784 31.0183 37.1034 28 37.1034C24.9831 37.1034 22.0374 37.5782 19.2491 38.4924C18.7179 35.8983 18.3694 33.009 18.2687 29.8878L37.7316 29.8876ZM37.9619 47.2331C38.4591 46.1186 38.9051 44.9227 39.3036 43.6661C40.8122 44.4639 42.2408 45.4267 43.5679 46.5438C41.3384 48.4186 38.7677 49.8991 35.9632 50.8782C36.6827 49.8163 37.3521 48.5996 37.9619 47.2331ZM40.2983 39.9351C40.9854 36.8106 41.3965 33.4121 41.5053 29.8876H52.1513C51.7383 35.2206 49.5905 40.0748 46.2731 43.8856C44.4403 42.3024 42.4331 40.9805 40.2983 39.9351ZM41.5053 26.112C41.3967 22.5877 40.9854 19.1892 40.2983 16.0647C42.4329 15.0193 44.4401 13.6974 46.2731 12.114C49.5905 15.9247 51.7383 20.779 52.1513 26.1122L41.5053 26.112ZM9.7278 12.1128C11.5604 13.6955 13.5671 15.0183 15.7017 16.0637C15.0143 19.1885 14.6033 22.5872 14.4945 26.112H3.8485C4.26193 20.7785 6.41 15.9238 9.7278 12.1128ZM3.84874 29.8876H14.4947C14.6033 33.4123 15.0146 36.811 15.702 39.9361C13.5673 40.9814 11.5606 42.3041 9.72804 43.887C6.41001 40.0757 4.26193 35.2213 3.84874 29.8876Z" fill="white"/>
</svg>
