<svg width="77" height="22" viewBox="0 0 77 22" fill="none" xmlns="http://www.w3.org/2000/svg">
<path d="M2 8.66663C0.89543 8.66663 0 9.56206 0 10.6666C0 11.7712 0.89543 12.6666 2 12.6666V10.6666V8.66663ZM2 10.6666V12.6666H28V10.6666V8.66663H2V10.6666Z" fill="#EF7824"/>
<path d="M32 10.6666H45" stroke="#EF7824" stroke-width="4"/>
<path d="M55.1749 10.6666C55.1749 16.5577 59.9506 21.3333 65.8416 21.3333C71.7327 21.3333 76.5083 16.5577 76.5083 10.6666C76.5083 4.77559 71.7327 -4.1008e-05 65.8416 -4.1008e-05C59.9506 -4.1008e-05 55.1749 4.77559 55.1749 10.6666ZM49 10.6666V12.6666L65.8416 12.6666V10.6666V8.66663L49 8.66663V10.6666Z" fill="#EF7824"/>
</svg>
