<svg width="259" height="90" viewBox="0 0 259 90" fill="none" xmlns="http://www.w3.org/2000/svg">
<path d="M24.7553 24.9394C25.0588 24.9394 25.3623 24.9394 25.6751 24.9394C26.3176 24.9411 26.9602 24.9466 27.6026 24.9558C28.5733 24.9689 29.5432 24.9687 30.5139 24.9666C36.1284 24.9849 40.661 25.7951 45.4207 28.9262C48.6483 31.2815 50.9752 34.483 52.3466 38.2323C53.7435 42.7459 53.6016 47.4907 52.1916 51.9772C50.8634 55.6038 48.0931 58.8557 44.9913 61.0977C40.1341 64.2909 35.5941 64.6903 29.9021 64.7224C29.2211 64.7277 28.54 64.7363 27.8591 64.7484C26.8733 64.7656 25.888 64.7726 24.9021 64.7772C24.4465 64.7879 24.4465 64.7879 23.9817 64.7989C23.1704 64.7963 22.4316 64.7704 21.6359 64.6119C20.6538 63.9007 20.6538 63.9007 20.0565 63.0325C19.8622 62.3223 19.8622 62.3223 19.869 61.6098C19.8698 61.3498 19.8706 61.0898 19.8715 60.8219C19.8849 60.4209 19.8849 60.4209 19.8986 60.0119C19.8974 59.6091 19.8974 59.6091 19.8961 59.1981C19.914 58.0599 19.9475 57.2437 20.4711 56.2213C21.0042 55.7672 21.0042 55.7672 22.1098 55.629C23.2153 55.7672 23.2153 55.7672 23.7546 56.1275C24.163 56.7149 24.163 56.7149 24.2555 57.6366C24.2445 57.9774 24.2335 58.3182 24.2222 58.6694C24.2094 59.1843 24.2094 59.1843 24.1963 59.7096C24.1853 59.9722 24.1743 60.2348 24.163 60.5054C25.944 60.4914 27.7246 60.4692 29.5054 60.4399C30.1098 60.431 30.7142 60.4243 31.3186 60.4198C35.6938 60.3856 39.095 60.1008 42.7777 57.5243C42.9935 57.3614 43.2093 57.1986 43.4316 57.0308C43.6927 56.839 43.9537 56.6472 44.2226 56.4496C46.1945 54.743 47.7977 52.0895 48.6029 49.6088C49.2183 46.1804 49.3423 42.2614 48.1698 38.9467C46.7933 36.0239 45.0687 33.6513 42.331 31.8962C39.4863 30.2794 36.8341 29.4646 33.5715 29.4185C33.166 29.4093 33.166 29.4093 32.7524 29.3999C31.8964 29.3812 31.0405 29.3665 30.1844 29.3519C29.601 29.3398 29.0176 29.3274 28.4341 29.3148C27.0105 29.2846 25.5868 29.258 24.163 29.2334C24.1696 29.4848 24.1762 29.7362 24.183 29.9952C24.2095 31.1495 24.2258 32.3038 24.242 33.4583C24.2525 33.8537 24.2631 34.249 24.274 34.6564C24.2996 37.0978 24.1048 39.0821 22.8995 41.2368C21.9339 42.6047 20.7541 43.7089 19.5247 44.8373C19.3143 45.0308 19.104 45.2244 18.8872 45.4237C18.4631 45.8109 18.0362 46.195 17.6062 46.5756C17.3068 46.8463 17.3068 46.8463 17.0014 47.1225C16.8219 47.2818 16.6425 47.441 16.4575 47.6051C15.7397 48.427 15.3847 49.0415 15.0025 50.0814C14.8572 51.4373 14.8546 52.7869 14.8544 54.1496C14.852 54.5428 14.8496 54.936 14.8471 55.3412C14.8428 56.3828 14.8435 57.4243 14.8453 58.466C14.8445 59.1037 14.8388 59.7412 14.8313 60.3789C14.8178 61.6061 14.8149 62.833 14.8149 64.0603C14.8097 64.44 14.8046 64.8198 14.7992 65.211C14.7629 67.0144 14.7629 67.0144 15.3445 68.6751C15.9005 69.2485 16.5019 69.6259 17.2136 69.9818C18.1234 70.02 19.0268 70.0404 19.9369 70.0484C20.4919 70.0573 21.047 70.0663 21.602 70.0756C22.4789 70.0886 23.3558 70.1003 24.2328 70.1086C25.0779 70.1173 25.9227 70.1318 26.7678 70.1471C27.0304 70.1482 27.2929 70.1492 27.5635 70.1502C28.2217 70.1643 28.8784 70.2276 29.5329 70.2977C30.0761 70.7205 30.0761 70.7205 30.4806 71.2453C30.599 72.1929 30.599 72.1929 30.4806 73.1406C30.0815 73.6656 30.0815 73.6656 29.5329 74.0882C28.9203 74.2107 28.9203 74.2107 28.2186 74.2159C27.823 74.2219 27.823 74.2219 27.4195 74.228C27.1352 74.2271 26.8509 74.2261 26.558 74.2252C26.2638 74.2268 25.9697 74.2285 25.6666 74.2302C25.0434 74.2322 24.4202 74.2318 23.7971 74.2291C22.8492 74.2264 21.902 74.2355 20.9542 74.2455C20.3477 74.2461 19.7413 74.2459 19.1348 74.2449C18.8537 74.2485 18.5726 74.252 18.283 74.2557C16.3894 74.2348 15.0229 73.849 13.4231 72.8247C12.795 72.3065 12.795 72.3065 12.3767 71.7981C12.2346 71.6336 12.0925 71.4691 11.9461 71.2996C10.4978 68.9242 10.4364 66.7306 10.4432 64.0122C10.4415 63.6236 10.4399 63.235 10.4382 62.8347C10.4361 62.0154 10.4366 61.1961 10.4393 60.3768C10.4419 59.1297 10.4329 57.883 10.4228 56.6359C10.4223 55.8372 10.4225 55.0384 10.4234 54.2397C10.4199 53.8701 10.4163 53.5005 10.4127 53.1196C10.4354 50.4239 10.9092 48.248 12.4779 46.0231C12.8089 45.6768 12.8089 45.6768 13.1467 45.3235C13.3934 45.0645 13.6402 44.8055 13.8944 44.5387C15.1728 43.2882 16.5041 42.1031 17.8454 40.9209C19.0384 39.8345 19.0384 39.8345 19.7407 38.3939C19.7705 37.5272 19.7839 36.667 19.7851 35.8002C19.7909 35.2779 19.7971 34.7555 19.8036 34.2332C19.8127 33.411 19.8196 32.5891 19.8198 31.7669C19.8208 30.9723 19.8318 30.1784 19.8443 29.3839C19.8421 29.1394 19.8398 28.8949 19.8375 28.6429C19.8641 27.463 20.0229 26.7586 20.6645 25.761C22.0381 24.8645 23.1472 24.9107 24.7553 24.9394Z" fill="white"/>
<path d="M17.3254 15.5646C17.5942 15.5616 17.8629 15.5586 18.1399 15.5555C18.4275 15.5558 18.7151 15.5561 19.0114 15.5564C19.3089 15.555 19.6063 15.5537 19.9128 15.5523C20.5407 15.5505 21.1687 15.5503 21.7966 15.5517C22.7589 15.5527 23.7208 15.5453 24.6831 15.5373C25.2932 15.5365 25.9034 15.5363 26.5136 15.5366C26.8018 15.5337 27.0901 15.5308 27.3871 15.5278C27.6549 15.5298 27.9226 15.5318 28.1986 15.5338C28.4339 15.5336 28.6693 15.5334 28.9118 15.5332C29.5329 15.6514 29.5329 15.6514 30.0828 16.0733C30.4806 16.599 30.4806 16.599 30.599 17.5467C30.4806 18.4943 30.4806 18.4943 30.077 19.0201C29.5329 19.4419 29.5329 19.4419 28.2906 19.5585C27.771 19.563 27.2515 19.563 26.732 19.5592C26.1664 19.5647 25.6009 19.5702 25.0354 19.5758C24.1446 19.579 23.2539 19.5801 22.3632 19.5796C21.5029 19.5807 20.6429 19.5894 19.7826 19.5987C19.5174 19.5961 19.2521 19.5935 18.9788 19.5908C17.698 19.6071 17.0547 19.6583 15.9475 20.36C15.3052 20.9706 15.3052 20.9706 15.0025 21.6531C14.9686 22.3723 14.9533 23.0924 14.9469 23.8124C14.9396 24.2509 14.932 24.6893 14.9241 25.1278C14.913 25.8189 14.9038 26.5098 14.8995 27.201C14.8946 27.8683 14.8819 28.535 14.868 29.2021C14.8634 29.6017 14.8588 30.0013 14.854 30.413C14.6866 31.4453 14.6866 31.4453 14.0929 32.2074C13.4231 32.7089 13.4231 32.7089 12.6334 32.8668C11.8437 32.7089 11.8437 32.7089 11.1737 32.2062C10.5802 31.4453 10.5802 31.4453 10.4117 30.4241C10.4082 30.0274 10.4048 29.6306 10.4012 29.2219C10.3993 29.0068 10.3973 28.7917 10.3953 28.5701C10.3931 28.115 10.3941 27.6599 10.3981 27.2049C10.4024 26.5182 10.3917 25.8329 10.3796 25.1463C10.3664 22.8182 10.5372 20.8751 11.695 18.7955C13.0076 17.0519 15.104 15.5784 17.3254 15.5646Z" fill="white"/>
<path d="M60.963 41.6909C62.0686 41.8686 62.0686 41.8686 62.9965 42.4806C63.6477 43.4476 63.7705 43.7742 63.8257 44.8892C63.769 45.9205 63.694 46.2295 63.0557 47.0806C62.3845 47.5544 62.3845 47.5544 61.7527 47.8703C61.5891 48.569 61.4567 49.275 61.3381 49.9827C60.2189 55.9717 57.5188 60.9342 53.224 65.2436C53.0663 65.4137 52.9086 65.5838 52.7462 65.759C51.369 67.2107 49.9109 68.2419 48.1896 69.2514C47.9496 69.3965 47.7095 69.5417 47.4622 69.6912C46.7558 70.1142 46.044 70.5248 45.327 70.9295C44.9818 71.1259 44.9818 71.1259 44.6296 71.3263C44.4098 71.445 44.19 71.5636 43.9635 71.6858C43.6724 71.8445 43.6724 71.8445 43.3755 72.0064C42.7999 72.193 42.7999 72.193 42.0954 72.0667C41.911 72.0042 41.7265 71.9416 41.5364 71.8771C41.38 71.0953 41.38 71.0953 41.2205 70.2977C41.5414 70.1446 41.8622 69.9915 42.1928 69.8338C48.0819 66.9848 52.6181 63.658 56.0669 57.9784C57.7277 54.9231 59.5253 51.1098 59.2257 47.5544C59.0107 47.3134 58.7957 47.0723 58.5742 46.824C57.9622 45.975 57.9622 45.975 57.8931 45.289C57.9432 44.5216 58.0443 43.8648 58.278 43.1321C59.1366 42.0968 59.6387 41.9037 60.963 41.6909Z" fill="white"/>
<path d="M10.2643 24.8115C10.3685 24.8115 10.4728 24.8115 10.5802 24.8115C10.698 25.8552 10.7506 26.63 10.5802 27.6544C10.1251 28.4601 9.58654 29.1557 9.0242 29.8903C6.77174 33.0632 4.68955 37.3277 4.4205 41.2372C4.50613 42.2261 4.50613 42.2261 5.2102 42.9746C5.84196 43.7643 5.84196 43.7643 5.9999 44.8698C5.84196 45.9754 5.84196 45.9754 5.38788 46.8836C4.56208 47.5684 4.20213 47.7256 3.17673 47.9102C2.05451 47.9694 1.76925 47.8913 0.768142 47.2784C0.0572592 46.1318 -0.0536292 45.4342 0.0191613 44.1085C0.156125 43.4484 0.156125 43.4484 0.748399 42.6587C1.41964 42.1849 1.41964 42.1849 2.0514 41.869C2.22279 41.2173 2.36174 40.5571 2.48574 39.8947C3.69598 34.0275 5.97579 29.1 10.2643 24.8115Z" fill="white"/>
<path d="M41.5364 17.8623C44.2669 17.8623 46.5047 19.2572 48.7105 20.7569C52.1737 23.2187 55.0019 25.9863 57.3304 29.5498C57.6376 29.9786 57.6376 29.9786 57.951 30.416C58.7246 31.6544 59.2532 32.9101 59.7785 34.2683C59.8782 34.5124 59.978 34.7565 60.0808 35.008C60.6743 36.5277 60.918 37.7116 60.8051 39.3421C60.0233 39.4984 60.0233 39.4984 59.2257 39.658C59.0954 39.3127 58.9651 38.9674 58.8308 38.6116C58.7425 38.3791 58.6541 38.1466 58.5631 37.907C58.3731 37.3898 58.1929 36.8689 58.0226 36.3449C56.2764 31.1063 53.1797 27.0356 48.9003 23.6074C47.1522 22.3404 45.2759 21.4559 43.2809 20.6499C42.6087 20.3647 42.6087 20.3647 41.5364 19.7576C41.2242 18.8938 41.2242 18.8938 41.2205 18.1782C41.3248 18.0739 41.429 17.9697 41.5364 17.8623Z" fill="white"/>
<path d="M2.99904 50.3975C3.52025 50.3975 4.04145 50.3975 4.57844 50.3975C4.71444 50.7643 4.85044 51.1312 4.99057 51.5092C6.14901 54.5909 7.30496 57.5249 9.2969 60.17C10.5322 61.8491 10.5322 61.8491 10.7603 62.9709C10.7578 63.7631 10.7578 63.7631 10.5802 64.9279C7.15613 62.3554 4.76609 57.8645 3.31492 53.8721C2.9614 52.6855 2.92039 51.6296 2.99904 50.3975Z" fill="white"/>
<path d="M35.6926 69.1729C36.8386 69.357 37.4643 69.5936 38.3776 70.2982C39.0093 71.2458 39.0093 71.2458 39.1475 72.1342C39.0072 73.1568 38.8829 73.422 38.2591 74.1874C37.4299 75.0364 37.4299 75.0364 36.7982 75.3522C35.9295 75.5102 35.9295 75.5102 34.9029 75.3522C34.0965 74.721 33.5282 74.0206 33.0076 73.1411C32.7904 72.1737 32.7904 72.1737 33.0076 71.2458C33.7953 69.9568 34.1773 69.4164 35.6926 69.1729Z" fill="white"/>
<path d="M23.2659 47.3353C23.8471 47.555 23.8471 47.555 24.6565 48.1867C25.1167 49.147 25.1848 49.5428 25.1304 50.5756C24.9565 51.6084 24.813 51.9552 24.1235 52.7867C23.2153 53.2408 23.2153 53.2408 22.1098 53.4382C21.0042 53.2408 21.0042 53.2408 20.0763 52.4511C19.5214 51.6688 19.2874 51.018 19.2076 50.0623C19.4248 48.8185 19.4248 48.8185 20.2145 47.8511C21.2359 47.1371 22.062 47.0811 23.2659 47.3353Z" fill="white"/>
<path d="M35.2003 14.5416C36.3479 14.4785 37.0187 14.6525 38.042 15.1968C38.6935 15.9668 38.6935 15.9668 39.0093 17.0526C39.0093 18.1779 39.0093 18.1779 38.6145 19.0663C38.0617 19.7573 38.0617 19.7573 37.1141 20.3891C36.162 20.4949 35.5031 20.5664 34.587 20.3891C33.6175 19.5687 33.3616 18.9328 32.9879 17.7238C33.0076 16.5985 33.0076 16.5985 33.6196 15.5127C34.587 14.7033 34.587 14.7033 35.2003 14.5416Z" fill="white"/>
<path d="M13.3614 35.095C14.0548 35.2357 14.0548 35.2357 15.0222 35.8872C15.6342 36.8151 15.6342 36.8151 15.8119 37.9207C15.6342 39.0263 15.6342 39.0263 15.042 39.9344C14.3707 40.6056 14.3707 40.6056 13.739 40.9215C12.6926 41.04 12.6926 41.04 11.5278 40.9215C10.5999 40.3095 10.5999 40.3095 9.9484 39.3421C9.74768 38.3526 9.75625 37.4896 9.9484 36.4992C10.746 35.0775 11.8444 35.0199 13.3614 35.095Z" fill="white"/>
<path d="M87.9166 52.5H78.5515V24.8636H88.1055C90.8493 24.8636 93.2063 25.4169 95.1765 26.5234C97.1557 27.621 98.676 29.1998 99.7376 31.2599C100.799 33.3201 101.33 35.785 101.33 38.6548C101.33 41.5336 100.795 44.0076 99.7241 46.0767C98.6625 48.1458 97.1287 49.7337 95.1225 50.8402C93.1254 51.9467 90.7234 52.5 87.9166 52.5ZM83.5579 48.1683H87.6737C89.5989 48.1683 91.2047 47.8175 92.4911 47.1158C93.7776 46.4051 94.7447 45.348 95.3924 43.9446C96.0401 42.5322 96.364 40.7689 96.364 38.6548C96.364 36.5407 96.0401 34.7865 95.3924 33.392C94.7447 31.9886 93.7866 30.9406 92.5181 30.2479C91.2587 29.5462 89.6933 29.1953 87.8221 29.1953H83.5579V48.1683ZM115.047 52.9048C112.969 52.9048 111.174 52.473 109.663 51.6094C108.16 50.7367 107.004 49.5043 106.195 47.9119C105.385 46.3106 104.98 44.4259 104.98 42.2578C104.98 40.1257 105.385 38.2545 106.195 36.6442C107.013 35.0249 108.156 33.7654 109.622 32.8658C111.089 31.9571 112.811 31.5028 114.79 31.5028C116.068 31.5028 117.273 31.7098 118.407 32.1236C119.549 32.5284 120.557 33.1581 121.43 34.0128C122.311 34.8674 123.004 35.956 123.508 37.2784C124.012 38.5919 124.264 40.1572 124.264 41.9744V43.4723H107.274V40.1797H119.581C119.572 39.2441 119.37 38.4119 118.974 37.6832C118.578 36.9455 118.025 36.3653 117.314 35.9425C116.612 35.5196 115.794 35.3082 114.858 35.3082C113.859 35.3082 112.982 35.5511 112.227 36.0369C111.471 36.5137 110.882 37.1435 110.459 37.9261C110.045 38.6998 109.834 39.55 109.825 40.4766V43.3509C109.825 44.5563 110.045 45.5909 110.486 46.4545C110.927 47.3092 111.543 47.9659 112.335 48.4247C113.126 48.8745 114.053 49.0994 115.114 49.0994C115.825 49.0994 116.468 49.0005 117.044 48.8026C117.62 48.5956 118.119 48.2943 118.542 47.8984C118.965 47.5026 119.284 47.0123 119.5 46.4276L124.061 46.9403C123.773 48.1458 123.224 49.1984 122.415 50.098C121.614 50.9886 120.589 51.6813 119.338 52.1761C118.088 52.6619 116.657 52.9048 115.047 52.9048ZM137.437 52.9048C135.368 52.9048 133.591 52.4505 132.107 51.5419C130.632 50.6333 129.494 49.3783 128.693 47.777C127.901 46.1667 127.506 44.3134 127.506 42.2173C127.506 40.1122 127.91 38.2545 128.72 36.6442C129.53 35.0249 130.672 33.7654 132.148 32.8658C133.632 31.9571 135.386 31.5028 137.41 31.5028C139.093 31.5028 140.582 31.8132 141.877 32.4339C143.181 33.0457 144.22 33.9138 144.994 35.0384C145.768 36.1539 146.209 37.4583 146.317 38.9517H141.648C141.459 37.9531 141.009 37.121 140.298 36.4553C139.596 35.7805 138.656 35.4432 137.478 35.4432C136.479 35.4432 135.602 35.7131 134.846 36.2528C134.091 36.7836 133.501 37.5483 133.079 38.5469C132.665 39.5455 132.458 40.742 132.458 42.1364C132.458 43.5488 132.665 44.7633 133.079 45.7798C133.492 46.7874 134.073 47.5656 134.819 48.1143C135.575 48.6541 136.461 48.924 137.478 48.924C138.198 48.924 138.841 48.7891 139.408 48.5192C139.983 48.2403 140.465 47.84 140.851 47.3182C141.238 46.7964 141.504 46.1622 141.648 45.4155H146.317C146.2 46.8819 145.768 48.1818 145.021 49.3153C144.274 50.4399 143.258 51.3215 141.971 51.9602C140.685 52.59 139.174 52.9048 137.437 52.9048ZM159.369 52.9048C157.345 52.9048 155.591 52.4595 154.106 51.5689C152.622 50.6783 151.47 49.4323 150.652 47.831C149.842 46.2296 149.437 44.3584 149.437 42.2173C149.437 40.0762 149.842 38.2005 150.652 36.5902C151.47 34.9799 152.622 33.7294 154.106 32.8388C155.591 31.9482 157.345 31.5028 159.369 31.5028C161.393 31.5028 163.147 31.9482 164.632 32.8388C166.116 33.7294 167.263 34.9799 168.073 36.5902C168.891 38.2005 169.301 40.0762 169.301 42.2173C169.301 44.3584 168.891 46.2296 168.073 47.831C167.263 49.4323 166.116 50.6783 164.632 51.5689C163.147 52.4595 161.393 52.9048 159.369 52.9048ZM159.396 48.9915C160.494 48.9915 161.411 48.6901 162.149 48.0874C162.886 47.4756 163.435 46.657 163.795 45.6314C164.164 44.6058 164.348 43.4633 164.348 42.2038C164.348 40.9354 164.164 39.7884 163.795 38.7628C163.435 37.7282 162.886 36.9051 162.149 36.2933C161.411 35.6816 160.494 35.3757 159.396 35.3757C158.271 35.3757 157.336 35.6816 156.589 36.2933C155.851 36.9051 155.298 37.7282 154.929 38.7628C154.569 39.7884 154.39 40.9354 154.39 42.2038C154.39 43.4633 154.569 44.6058 154.929 45.6314C155.298 46.657 155.851 47.4756 156.589 48.0874C157.336 48.6901 158.271 48.9915 159.396 48.9915ZM181.139 52.8643C179.51 52.8643 178.053 52.446 176.767 51.6094C175.48 50.7727 174.463 49.5582 173.717 47.9659C172.97 46.3736 172.597 44.4394 172.597 42.1634C172.597 39.8603 172.975 37.9171 173.73 36.3338C174.495 34.7415 175.525 33.5405 176.821 32.7308C178.116 31.9122 179.56 31.5028 181.152 31.5028C182.367 31.5028 183.365 31.7098 184.148 32.1236C184.931 32.5284 185.551 33.0187 186.01 33.5945C186.469 34.1612 186.824 34.6965 187.076 35.2003H187.279V24.8636H192.177V52.5H187.373V49.2344H187.076C186.824 49.7382 186.46 50.2734 185.983 50.8402C185.506 51.398 184.877 51.8748 184.094 52.2706C183.311 52.6664 182.326 52.8643 181.139 52.8643ZM182.502 48.8565C183.536 48.8565 184.418 48.5777 185.146 48.0199C185.875 47.4531 186.428 46.666 186.806 45.6584C187.184 44.6508 187.373 43.4768 187.373 42.1364C187.373 40.7959 187.184 39.6309 186.806 38.6413C186.437 37.6518 185.889 36.8826 185.16 36.3338C184.44 35.785 183.554 35.5107 182.502 35.5107C181.413 35.5107 180.504 35.794 179.776 36.3608C179.047 36.9276 178.498 37.7102 178.129 38.7088C177.761 39.7074 177.576 40.8499 177.576 42.1364C177.576 43.4318 177.761 44.5878 178.129 45.6044C178.507 46.612 179.061 47.4081 179.789 47.9929C180.527 48.5687 181.431 48.8565 182.502 48.8565ZM206.559 52.9048C204.48 52.9048 202.686 52.473 201.174 51.6094C199.672 50.7367 198.516 49.5043 197.706 47.9119C196.897 46.3106 196.492 44.4259 196.492 42.2578C196.492 40.1257 196.897 38.2545 197.706 36.6442C198.525 35.0249 199.668 33.7654 201.134 32.8658C202.6 31.9571 204.323 31.5028 206.302 31.5028C207.58 31.5028 208.785 31.7098 209.919 32.1236C211.061 32.5284 212.069 33.1581 212.941 34.0128C213.823 34.8674 214.516 35.956 215.02 37.2784C215.523 38.5919 215.775 40.1572 215.775 41.9744V43.4723H198.786V40.1797H211.093C211.084 39.2441 210.881 38.4119 210.485 37.6832C210.09 36.9455 209.536 36.3653 208.826 35.9425C208.124 35.5196 207.305 35.3082 206.37 35.3082C205.371 35.3082 204.494 35.5511 203.738 36.0369C202.983 36.5137 202.393 37.1435 201.971 37.9261C201.557 38.6998 201.345 39.55 201.336 40.4766V43.3509C201.336 44.5563 201.557 45.5909 201.998 46.4545C202.438 47.3092 203.055 47.9659 203.846 48.4247C204.638 48.8745 205.565 49.0994 206.626 49.0994C207.337 49.0994 207.98 49.0005 208.556 48.8026C209.132 48.5956 209.631 48.2943 210.054 47.8984C210.476 47.5026 210.796 47.0123 211.012 46.4276L215.573 46.9403C215.285 48.1458 214.736 49.1984 213.927 50.098C213.126 50.9886 212.1 51.6813 210.85 52.1761C209.599 52.6619 208.169 52.9048 206.559 52.9048ZM219.908 52.5V31.7727H224.644V35.2273H224.86C225.238 34.0308 225.886 33.1087 226.803 32.4609C227.73 31.8042 228.787 31.4759 229.975 31.4759C230.245 31.4759 230.546 31.4893 230.879 31.5163C231.221 31.5343 231.504 31.5658 231.729 31.6108V36.1044C231.522 36.0324 231.194 35.9695 230.744 35.9155C230.303 35.8525 229.876 35.821 229.462 35.821C228.571 35.821 227.771 36.0144 227.06 36.4013C226.358 36.7791 225.805 37.3054 225.4 37.9801C224.995 38.6548 224.793 39.433 224.793 40.3146V52.5H219.908ZM234.704 52.5V49.3963L245.392 35.9964V35.821H235.055V31.7727H251.37V35.1058L241.195 48.2763V48.4517H251.721V52.5H234.704Z" fill="white"/>
<path d="M83.5984 61.7727C83.5302 61.197 83.2537 60.75 82.7688 60.4318C82.284 60.1136 81.6893 59.9545 80.9847 59.9545C80.4696 59.9545 80.0188 60.0379 79.6325 60.2045C79.2499 60.3712 78.9507 60.6004 78.7347 60.892C78.5226 61.1837 78.4166 61.5152 78.4166 61.8864C78.4166 62.197 78.4904 62.464 78.6382 62.6875C78.7897 62.9072 78.9829 63.0909 79.2177 63.2386C79.4525 63.3826 79.6988 63.5019 79.9563 63.5966C80.2139 63.6875 80.4507 63.7614 80.6666 63.8182L81.8484 64.1364C82.1514 64.2159 82.4885 64.3258 82.8597 64.4659C83.2347 64.6061 83.5927 64.7973 83.9336 65.0398C84.2783 65.2784 84.5624 65.5852 84.7859 65.9602C85.0094 66.3352 85.1211 66.7955 85.1211 67.3409C85.1211 67.9697 84.9563 68.5379 84.6268 69.0455C84.301 69.553 83.8238 69.9564 83.195 70.2557C82.57 70.5549 81.8105 70.7045 80.9166 70.7045C80.0832 70.7045 79.3616 70.5701 78.7518 70.3011C78.1457 70.0322 77.6685 69.6572 77.32 69.1761C76.9753 68.6951 76.7802 68.1364 76.7347 67.5H78.1893C78.2272 67.9394 78.3749 68.303 78.6325 68.5909C78.8938 68.875 79.2234 69.0871 79.6211 69.2273C80.0226 69.3636 80.4544 69.4318 80.9166 69.4318C81.4544 69.4318 81.9374 69.3447 82.3654 69.1705C82.7935 68.9924 83.1325 68.7462 83.3825 68.4318C83.6325 68.1136 83.7575 67.7424 83.7575 67.3182C83.7575 66.9318 83.6495 66.6174 83.4336 66.375C83.2177 66.1326 82.9336 65.9356 82.5813 65.7841C82.2291 65.6326 81.8484 65.5 81.4393 65.3864L80.0075 64.9773C79.0984 64.7159 78.3787 64.3428 77.8484 63.858C77.3181 63.3731 77.0529 62.7386 77.0529 61.9545C77.0529 61.303 77.2291 60.7348 77.5813 60.25C77.9374 59.7614 78.4147 59.3826 79.0132 59.1136C79.6154 58.8409 80.2878 58.7045 81.0302 58.7045C81.7802 58.7045 82.4469 58.839 83.0302 59.108C83.6135 59.3731 84.0757 59.7367 84.4166 60.1989C84.7613 60.661 84.9431 61.1856 84.962 61.7727H83.5984ZM90.8015 70.6818C90.0136 70.6818 89.3223 70.4943 88.7276 70.1193C88.1367 69.7443 87.6746 69.2197 87.3413 68.5455C87.0117 67.8712 86.847 67.0833 86.847 66.1818C86.847 65.2727 87.0117 64.4792 87.3413 63.8011C87.6746 63.1231 88.1367 62.5966 88.7276 62.2216C89.3223 61.8466 90.0136 61.6591 90.8015 61.6591C91.5894 61.6591 92.2788 61.8466 92.8697 62.2216C93.4644 62.5966 93.9265 63.1231 94.2561 63.8011C94.5894 64.4792 94.7561 65.2727 94.7561 66.1818C94.7561 67.0833 94.5894 67.8712 94.2561 68.5455C93.9265 69.2197 93.4644 69.7443 92.8697 70.1193C92.2788 70.4943 91.5894 70.6818 90.8015 70.6818ZM90.8015 69.4773C91.4 69.4773 91.8924 69.3239 92.2788 69.017C92.6651 68.7102 92.9511 68.3068 93.1367 67.8068C93.3223 67.3068 93.4151 66.7652 93.4151 66.1818C93.4151 65.5985 93.3223 65.0549 93.1367 64.5511C92.9511 64.0473 92.6651 63.6402 92.2788 63.3295C91.8924 63.0189 91.4 62.8636 90.8015 62.8636C90.203 62.8636 89.7106 63.0189 89.3242 63.3295C88.9379 63.6402 88.6519 64.0473 88.4663 64.5511C88.2807 65.0549 88.1879 65.5985 88.1879 66.1818C88.1879 66.7652 88.2807 67.3068 88.4663 67.8068C88.6519 68.3068 88.9379 68.7102 89.3242 69.017C89.7106 69.3239 90.203 69.4773 90.8015 69.4773ZM100.689 61.7727V62.9091H95.9847V61.7727H100.689ZM97.3938 70.5V60.5682C97.3938 60.0682 97.5113 59.6515 97.7461 59.3182C97.981 58.9848 98.2859 58.7348 98.6609 58.5682C99.0359 58.4015 99.4317 58.3182 99.8484 58.3182C100.178 58.3182 100.447 58.3447 100.655 58.3977C100.864 58.4508 101.019 58.5 101.121 58.5455L100.735 59.7045C100.667 59.6818 100.572 59.6534 100.451 59.6193C100.333 59.5852 100.178 59.5682 99.9847 59.5682C99.5416 59.5682 99.2215 59.6799 99.0245 59.9034C98.8313 60.1269 98.7347 60.4545 98.7347 60.8864V70.5H97.3938ZM106.364 61.7727V62.9091H101.841V61.7727H106.364ZM103.159 59.6818H104.5V68C104.5 68.3788 104.555 68.6629 104.665 68.8523C104.779 69.0379 104.923 69.1629 105.097 69.2273C105.275 69.2879 105.462 69.3182 105.659 69.3182C105.807 69.3182 105.928 69.3106 106.023 69.2955C106.118 69.2765 106.194 69.2614 106.25 69.25L106.523 70.4545C106.432 70.4886 106.305 70.5227 106.142 70.5568C105.98 70.5947 105.773 70.6136 105.523 70.6136C105.144 70.6136 104.773 70.5322 104.409 70.3693C104.05 70.2064 103.75 69.9583 103.512 69.625C103.277 69.2917 103.159 68.8712 103.159 68.3636V59.6818ZM110.358 70.5L107.699 61.7727H109.108L110.995 68.4545H111.086L112.949 61.7727H114.381L116.222 68.4318H116.313L118.199 61.7727H119.608L116.949 70.5H115.631L113.722 63.7955H113.586L111.677 70.5H110.358ZM123.949 70.7045C123.396 70.7045 122.894 70.6004 122.444 70.392C121.993 70.1799 121.635 69.875 121.37 69.4773C121.105 69.0758 120.972 68.5909 120.972 68.0227C120.972 67.5227 121.07 67.1174 121.267 66.8068C121.464 66.4924 121.728 66.2462 122.057 66.0682C122.387 65.8902 122.75 65.7576 123.148 65.6705C123.55 65.5795 123.953 65.5076 124.358 65.4545C124.889 65.3864 125.319 65.3352 125.648 65.3011C125.981 65.2633 126.224 65.2008 126.375 65.1136C126.531 65.0265 126.608 64.875 126.608 64.6591V64.6136C126.608 64.053 126.455 63.6174 126.148 63.3068C125.845 62.9962 125.385 62.8409 124.767 62.8409C124.127 62.8409 123.625 62.9811 123.262 63.2614C122.898 63.5417 122.642 63.8409 122.495 64.1591L121.222 63.7045C121.449 63.1742 121.752 62.7614 122.131 62.4659C122.514 62.1667 122.93 61.9583 123.381 61.8409C123.836 61.7197 124.283 61.6591 124.722 61.6591C125.002 61.6591 125.324 61.6932 125.688 61.7614C126.055 61.8258 126.409 61.9602 126.75 62.1648C127.095 62.3693 127.381 62.678 127.608 63.0909C127.836 63.5038 127.949 64.0568 127.949 64.75V70.5H126.608V69.3182H126.54C126.449 69.5076 126.298 69.7102 126.086 69.9261C125.873 70.142 125.591 70.3258 125.239 70.4773C124.887 70.6288 124.457 70.7045 123.949 70.7045ZM124.154 69.5C124.684 69.5 125.131 69.3958 125.495 69.1875C125.862 68.9792 126.139 68.7102 126.324 68.3807C126.514 68.0511 126.608 67.7045 126.608 67.3409V66.1136C126.552 66.1818 126.427 66.2443 126.233 66.3011C126.044 66.3542 125.824 66.4015 125.574 66.4432C125.328 66.4811 125.087 66.5152 124.853 66.5455C124.622 66.572 124.434 66.5947 124.29 66.6136C123.942 66.6591 123.616 66.733 123.313 66.8352C123.014 66.9337 122.771 67.0833 122.586 67.2841C122.404 67.4811 122.313 67.75 122.313 68.0909C122.313 68.5568 122.485 68.9091 122.83 69.1477C123.178 69.3826 123.62 69.5 124.154 69.5ZM130.397 70.5V61.7727H131.692V63.0909H131.783C131.942 62.6591 132.23 62.3087 132.647 62.0398C133.063 61.7708 133.533 61.6364 134.056 61.6364C134.154 61.6364 134.277 61.6383 134.425 61.642C134.573 61.6458 134.685 61.6515 134.76 61.6591V63.0227C134.715 63.0114 134.611 62.9943 134.448 62.9716C134.289 62.9451 134.12 62.9318 133.942 62.9318C133.518 62.9318 133.139 63.0208 132.806 63.1989C132.476 63.3731 132.215 63.6155 132.022 63.9261C131.832 64.233 131.738 64.5833 131.738 64.9773V70.5H130.397ZM139.743 70.6818C138.902 70.6818 138.177 70.4962 137.567 70.125C136.961 69.75 136.493 69.2273 136.164 68.5568C135.838 67.8826 135.675 67.0985 135.675 66.2045C135.675 65.3106 135.838 64.5227 136.164 63.8409C136.493 63.1553 136.952 62.6212 137.539 62.2386C138.13 61.8523 138.819 61.6591 139.607 61.6591C140.061 61.6591 140.51 61.7348 140.953 61.8864C141.397 62.0379 141.8 62.2841 142.164 62.625C142.527 62.9621 142.817 63.4091 143.033 63.9659C143.249 64.5227 143.357 65.2083 143.357 66.0227V66.5909H136.63V65.4318H141.993C141.993 64.9394 141.895 64.5 141.698 64.1136C141.505 63.7273 141.228 63.4223 140.868 63.1989C140.512 62.9754 140.092 62.8636 139.607 62.8636C139.073 62.8636 138.611 62.9962 138.221 63.2614C137.834 63.5227 137.537 63.8636 137.328 64.2841C137.12 64.7045 137.016 65.1553 137.016 65.6364V66.4091C137.016 67.0682 137.13 67.6269 137.357 68.0852C137.588 68.5398 137.908 68.8864 138.317 69.125C138.726 69.3598 139.202 69.4773 139.743 69.4773C140.096 69.4773 140.414 69.428 140.698 69.3295C140.986 69.2273 141.234 69.0758 141.442 68.875C141.65 68.6705 141.811 68.4167 141.925 68.1136L143.221 68.4773C143.084 68.9167 142.855 69.303 142.533 69.6364C142.211 69.9659 141.813 70.2235 141.34 70.4091C140.866 70.5909 140.334 70.6818 139.743 70.6818ZM153.192 70.6591C152.427 70.6591 151.768 70.5189 151.215 70.2386C150.662 69.9583 150.236 69.5739 149.936 69.0852C149.637 68.5966 149.488 68.0379 149.488 67.4091C149.488 66.9242 149.59 66.4943 149.794 66.1193C150.003 65.7405 150.289 65.3902 150.652 65.0682C151.02 64.7424 151.442 64.4167 151.919 64.0909L153.601 62.8409C153.931 62.625 154.194 62.3939 154.391 62.1477C154.592 61.9015 154.692 61.5795 154.692 61.1818C154.692 60.8864 154.561 60.6004 154.3 60.3239C154.043 60.0473 153.703 59.9091 153.283 59.9091C152.988 59.9091 152.726 59.9848 152.499 60.1364C152.275 60.2841 152.099 60.4735 151.971 60.7045C151.846 60.9318 151.783 61.1667 151.783 61.4091C151.783 61.6818 151.857 61.9583 152.005 62.2386C152.156 62.5152 152.347 62.7992 152.578 63.0909C152.813 63.3788 153.056 63.6742 153.306 63.9773L158.647 70.5H157.033L152.624 65.1818C152.215 64.6894 151.844 64.2424 151.51 63.8409C151.177 63.4394 150.912 63.0436 150.715 62.6534C150.518 62.2633 150.419 61.8409 150.419 61.3864C150.419 60.8636 150.535 60.4053 150.766 60.0114C151.001 59.6136 151.328 59.3049 151.749 59.0852C152.173 58.8617 152.669 58.75 153.238 58.75C153.821 58.75 154.323 58.8636 154.743 59.0909C155.164 59.3144 155.488 59.6117 155.715 59.983C155.942 60.3504 156.056 60.75 156.056 61.1818C156.056 61.7386 155.918 62.2216 155.641 62.6307C155.364 63.0398 154.988 63.4205 154.51 63.7727L152.192 65.5C151.669 65.8864 151.315 66.2614 151.13 66.625C150.944 66.9886 150.851 67.25 150.851 67.4091C150.851 67.7727 150.946 68.1117 151.135 68.4261C151.325 68.7405 151.592 68.9943 151.936 69.1875C152.281 69.3807 152.685 69.4773 153.147 69.4773C153.586 69.4773 154.014 69.3845 154.431 69.1989C154.847 69.0095 155.224 68.7367 155.561 68.3807C155.902 68.0246 156.171 67.5966 156.368 67.0966C156.569 66.5966 156.669 66.0341 156.669 65.4091H157.965C157.965 66.1818 157.876 66.8125 157.698 67.3011C157.52 67.7898 157.319 68.1723 157.096 68.4489C156.872 68.7254 156.692 68.9318 156.556 69.0682C156.51 69.125 156.469 69.1818 156.431 69.2386C156.393 69.2955 156.351 69.3523 156.306 69.4091C155.931 69.8295 155.457 70.1439 154.885 70.3523C154.313 70.5568 153.749 70.6591 153.192 70.6591ZM165.29 70.5H163.813L168.086 58.8636H169.54L173.813 70.5H172.336L168.858 60.7045H168.767L165.29 70.5ZM165.836 65.9545H171.79V67.2045H165.836V65.9545ZM177.034 58.8636V70.5H175.625V58.8636H177.034ZM190.723 61.7727C190.655 61.197 190.379 60.75 189.894 60.4318C189.409 60.1136 188.814 59.9545 188.11 59.9545C187.595 59.9545 187.144 60.0379 186.757 60.2045C186.375 60.3712 186.076 60.6004 185.86 60.892C185.648 61.1837 185.542 61.5152 185.542 61.8864C185.542 62.197 185.615 62.464 185.763 62.6875C185.915 62.9072 186.108 63.0909 186.343 63.2386C186.578 63.3826 186.824 63.5019 187.081 63.5966C187.339 63.6875 187.576 63.7614 187.792 63.8182L188.973 64.1364C189.276 64.2159 189.614 64.3258 189.985 64.4659C190.36 64.6061 190.718 64.7973 191.059 65.0398C191.403 65.2784 191.687 65.5852 191.911 65.9602C192.134 66.3352 192.246 66.7955 192.246 67.3409C192.246 67.9697 192.081 68.5379 191.752 69.0455C191.426 69.553 190.949 69.9564 190.32 70.2557C189.695 70.5549 188.936 70.7045 188.042 70.7045C187.208 70.7045 186.487 70.5701 185.877 70.3011C185.271 70.0322 184.793 69.6572 184.445 69.1761C184.1 68.6951 183.905 68.1364 183.86 67.5H185.314C185.352 67.9394 185.5 68.303 185.757 68.5909C186.019 68.875 186.348 69.0871 186.746 69.2273C187.148 69.3636 187.579 69.4318 188.042 69.4318C188.579 69.4318 189.062 69.3447 189.49 69.1705C189.918 68.9924 190.257 68.7462 190.507 68.4318C190.757 68.1136 190.882 67.7424 190.882 67.3182C190.882 66.9318 190.775 66.6174 190.559 66.375C190.343 66.1326 190.059 65.9356 189.706 65.7841C189.354 65.6326 188.973 65.5 188.564 65.3864L187.132 64.9773C186.223 64.7159 185.504 64.3428 184.973 63.858C184.443 63.3731 184.178 62.7386 184.178 61.9545C184.178 61.303 184.354 60.7348 184.706 60.25C185.062 59.7614 185.54 59.3826 186.138 59.1136C186.74 58.8409 187.413 58.7045 188.155 58.7045C188.905 58.7045 189.572 58.839 190.155 59.108C190.739 59.3731 191.201 59.7367 191.542 60.1989C191.886 60.661 192.068 61.1856 192.087 61.7727H190.723ZM197.927 70.6818C197.139 70.6818 196.447 70.4943 195.853 70.1193C195.262 69.7443 194.8 69.2197 194.466 68.5455C194.137 67.8712 193.972 67.0833 193.972 66.1818C193.972 65.2727 194.137 64.4792 194.466 63.8011C194.8 63.1231 195.262 62.5966 195.853 62.2216C196.447 61.8466 197.139 61.6591 197.927 61.6591C198.714 61.6591 199.404 61.8466 199.995 62.2216C200.589 62.5966 201.052 63.1231 201.381 63.8011C201.714 64.4792 201.881 65.2727 201.881 66.1818C201.881 67.0833 201.714 67.8712 201.381 68.5455C201.052 69.2197 200.589 69.7443 199.995 70.1193C199.404 70.4943 198.714 70.6818 197.927 70.6818ZM197.927 69.4773C198.525 69.4773 199.017 69.3239 199.404 69.017C199.79 68.7102 200.076 68.3068 200.262 67.8068C200.447 67.3068 200.54 66.7652 200.54 66.1818C200.54 65.5985 200.447 65.0549 200.262 64.5511C200.076 64.0473 199.79 63.6402 199.404 63.3295C199.017 63.0189 198.525 62.8636 197.927 62.8636C197.328 62.8636 196.836 63.0189 196.449 63.3295C196.063 63.6402 195.777 64.0473 195.591 64.5511C195.406 65.0549 195.313 65.5985 195.313 66.1818C195.313 66.7652 195.406 67.3068 195.591 67.8068C195.777 68.3068 196.063 68.7102 196.449 69.017C196.836 69.3239 197.328 69.4773 197.927 69.4773ZM205.269 58.8636V70.5H203.928V58.8636H205.269ZM213.225 66.9318V61.7727H214.566V70.5H213.225V69.0227H213.134C212.929 69.4659 212.611 69.8428 212.179 70.1534C211.748 70.4602 211.202 70.6136 210.543 70.6136C209.998 70.6136 209.513 70.4943 209.088 70.2557C208.664 70.0133 208.331 69.6496 208.088 69.1648C207.846 68.6761 207.725 68.0606 207.725 67.3182V61.7727H209.066V67.2273C209.066 67.8636 209.244 68.3712 209.6 68.75C209.96 69.1288 210.418 69.3182 210.975 69.3182C211.308 69.3182 211.647 69.233 211.992 69.0625C212.34 68.892 212.632 68.6307 212.867 68.2784C213.105 67.9261 213.225 67.4773 213.225 66.9318ZM220.817 61.7727V62.9091H216.294V61.7727H220.817ZM217.613 59.6818H218.953V68C218.953 68.3788 219.008 68.6629 219.118 68.8523C219.232 69.0379 219.376 69.1629 219.55 69.2273C219.728 69.2879 219.916 69.3182 220.113 69.3182C220.26 69.3182 220.382 69.3106 220.476 69.2955C220.571 69.2765 220.647 69.2614 220.703 69.25L220.976 70.4545C220.885 70.4886 220.758 70.5227 220.596 70.5568C220.433 70.5947 220.226 70.6136 219.976 70.6136C219.597 70.6136 219.226 70.5322 218.863 70.3693C218.503 70.2064 218.203 69.9583 217.965 69.625C217.73 69.2917 217.613 68.8712 217.613 68.3636V59.6818ZM222.834 70.5V61.7727H224.175V70.5H222.834ZM223.516 60.3182C223.255 60.3182 223.029 60.2292 222.84 60.0511C222.654 59.8731 222.561 59.6591 222.561 59.4091C222.561 59.1591 222.654 58.9451 222.84 58.767C223.029 58.589 223.255 58.5 223.516 58.5C223.777 58.5 224.001 58.589 224.186 58.767C224.376 58.9451 224.471 59.1591 224.471 59.4091C224.471 59.6591 224.376 59.8731 224.186 60.0511C224.001 60.2292 223.777 60.3182 223.516 60.3182ZM230.177 70.6818C229.389 70.6818 228.697 70.4943 228.103 70.1193C227.512 69.7443 227.05 69.2197 226.716 68.5455C226.387 67.8712 226.222 67.0833 226.222 66.1818C226.222 65.2727 226.387 64.4792 226.716 63.8011C227.05 63.1231 227.512 62.5966 228.103 62.2216C228.697 61.8466 229.389 61.6591 230.177 61.6591C230.964 61.6591 231.654 61.8466 232.245 62.2216C232.839 62.5966 233.302 63.1231 233.631 63.8011C233.964 64.4792 234.131 65.2727 234.131 66.1818C234.131 67.0833 233.964 67.8712 233.631 68.5455C233.302 69.2197 232.839 69.7443 232.245 70.1193C231.654 70.4943 230.964 70.6818 230.177 70.6818ZM230.177 69.4773C230.775 69.4773 231.267 69.3239 231.654 69.017C232.04 68.7102 232.326 68.3068 232.512 67.8068C232.697 67.3068 232.79 66.7652 232.79 66.1818C232.79 65.5985 232.697 65.0549 232.512 64.5511C232.326 64.0473 232.04 63.6402 231.654 63.3295C231.267 63.0189 230.775 62.8636 230.177 62.8636C229.578 62.8636 229.086 63.0189 228.699 63.3295C228.313 63.6402 228.027 64.0473 227.841 64.5511C227.656 65.0549 227.563 65.5985 227.563 66.1818C227.563 66.7652 227.656 67.3068 227.841 67.8068C228.027 68.3068 228.313 68.7102 228.699 69.017C229.086 69.3239 229.578 69.4773 230.177 69.4773ZM237.519 65.25V70.5H236.178V61.7727H237.473V63.1364H237.587C237.792 62.6932 238.102 62.3371 238.519 62.0682C238.936 61.7955 239.473 61.6591 240.132 61.6591C240.723 61.6591 241.24 61.7803 241.684 62.0227C242.127 62.2614 242.471 62.625 242.718 63.1136C242.964 63.5985 243.087 64.2121 243.087 64.9545V70.5H241.746V65.0455C241.746 64.3598 241.568 63.8258 241.212 63.4432C240.856 63.0568 240.367 62.8636 239.746 62.8636C239.318 62.8636 238.936 62.9564 238.598 63.142C238.265 63.3277 238.002 63.5985 237.809 63.9545C237.615 64.3106 237.519 64.7424 237.519 65.25ZM251.719 63.7273L250.515 64.0682C250.439 63.8674 250.327 63.6723 250.179 63.483C250.035 63.2898 249.838 63.1307 249.588 63.0057C249.338 62.8807 249.018 62.8182 248.628 62.8182C248.094 62.8182 247.649 62.9413 247.293 63.1875C246.941 63.4299 246.765 63.7386 246.765 64.1136C246.765 64.447 246.886 64.7102 247.128 64.9034C247.371 65.0966 247.749 65.2576 248.265 65.3864L249.56 65.7045C250.34 65.8939 250.922 66.1837 251.304 66.5739C251.687 66.9602 251.878 67.4583 251.878 68.0682C251.878 68.5682 251.734 69.0152 251.446 69.4091C251.162 69.803 250.765 70.1136 250.253 70.3409C249.742 70.5682 249.147 70.6818 248.469 70.6818C247.579 70.6818 246.842 70.4886 246.259 70.1023C245.676 69.7159 245.306 69.1515 245.151 68.4091L246.424 68.0909C246.545 68.5606 246.774 68.9129 247.111 69.1477C247.452 69.3826 247.897 69.5 248.446 69.5C249.071 69.5 249.568 69.3674 249.935 69.1023C250.306 68.8333 250.492 68.5114 250.492 68.1364C250.492 67.8333 250.386 67.5795 250.174 67.375C249.962 67.1667 249.636 67.0114 249.196 66.9091L247.742 66.5682C246.943 66.3788 246.355 66.0852 245.98 65.6875C245.609 65.286 245.424 64.7841 245.424 64.1818C245.424 63.6894 245.562 63.2538 245.838 62.875C246.119 62.4962 246.499 62.1989 246.98 61.983C247.465 61.767 248.015 61.6591 248.628 61.6591C249.492 61.6591 250.17 61.8485 250.662 62.2273C251.159 62.6061 251.511 63.1061 251.719 63.7273Z" fill="white"/>
</svg>
