<svg width="190" height="44" viewBox="0 0 190 44" fill="none" xmlns="http://www.w3.org/2000/svg">
<path d="M17.8735 7.5164C18.0926 7.51639 18.3118 7.51638 18.5376 7.51637C19.0015 7.5176 19.4654 7.52161 19.9293 7.52821C20.6301 7.53767 21.3304 7.53758 22.0312 7.536C26.0849 7.54927 29.3575 8.13421 32.7941 10.3949C35.1244 12.0955 36.8044 14.4069 37.7946 17.1139C38.8032 20.3728 38.7007 23.7986 37.6827 27.0378C36.7237 29.6563 34.7235 32.0042 32.484 33.6229C28.9771 35.9284 25.6992 36.2168 21.5895 36.24C21.0978 36.2438 20.6061 36.2501 20.1145 36.2587C19.4027 36.2712 18.6913 36.2762 17.9795 36.2796C17.6505 36.2873 17.6505 36.2873 17.3149 36.2952C16.7292 36.2934 16.1958 36.2747 15.6213 36.1602C14.9122 35.6468 14.9122 35.6468 14.481 35.0199C14.3407 34.5071 14.3407 34.5071 14.3456 33.9927C14.3462 33.805 14.3467 33.6172 14.3474 33.4238C14.3571 33.1343 14.3571 33.1343 14.367 32.839C14.3661 32.5481 14.3661 32.5481 14.3652 32.2514C14.3781 31.4297 14.4022 30.8403 14.7803 30.1022C15.1652 29.7743 15.1652 29.7743 15.9634 29.6745C16.7617 29.7743 16.7617 29.7743 17.151 30.0345C17.4459 30.4585 17.4459 30.4585 17.5127 31.124C17.5047 31.3701 17.4968 31.6162 17.4886 31.8697C17.4794 32.2414 17.4794 32.2414 17.4699 32.6207C17.462 32.8103 17.454 33 17.4459 33.1953C18.7317 33.1852 20.0174 33.1692 21.3031 33.148C21.7395 33.1416 22.1759 33.1367 22.6123 33.1335C25.7712 33.1088 28.2268 32.9032 30.8858 31.0429C31.0416 30.9253 31.1974 30.8077 31.3579 30.6866C31.5464 30.5481 31.7348 30.4096 31.929 30.267C33.3528 29.0348 34.5103 27.119 35.0917 25.3279C35.5359 22.8526 35.6255 20.023 34.7789 17.6297C33.7851 15.5195 32.5399 13.8064 30.5633 12.5392C28.5094 11.3719 26.5945 10.7836 24.2389 10.7503C23.9461 10.7437 23.9461 10.7437 23.6475 10.7369C23.0295 10.7234 22.4114 10.7128 21.7934 10.7022C21.3721 10.6935 20.9509 10.6846 20.5297 10.6755C19.5018 10.6537 18.4738 10.6345 17.4459 10.6167C17.4506 10.7982 17.4554 10.9797 17.4603 11.1667C17.4795 12.0001 17.4912 12.8335 17.5029 13.6671C17.5105 13.9526 17.5182 14.238 17.526 14.5321C17.5445 16.2948 17.4038 17.7275 16.5336 19.2832C15.8364 20.2709 14.9846 21.0681 14.097 21.8828C13.9451 22.0226 13.7932 22.1623 13.6367 22.3062C13.3305 22.5858 13.0223 22.8631 12.7118 23.1379C12.4957 23.3333 12.4957 23.3333 12.2751 23.5328C12.1456 23.6478 12.016 23.7627 11.8825 23.8812C11.3642 24.4746 11.1079 24.9183 10.8319 25.6691C10.727 26.6481 10.7252 27.6225 10.725 28.6064C10.7233 28.8903 10.7215 29.1742 10.7197 29.4667C10.7167 30.2188 10.7171 30.9707 10.7185 31.7228C10.7179 32.1833 10.7137 32.6435 10.7083 33.104C10.6985 33.99 10.6965 34.8758 10.6965 35.762C10.6928 36.0361 10.689 36.3103 10.6852 36.5928C10.659 37.8949 10.659 37.8949 11.0789 39.0939C11.4803 39.5079 11.9145 39.7804 12.4284 40.0373C13.0852 40.0649 13.7375 40.0797 14.3946 40.0854C14.7953 40.0918 15.1961 40.0984 15.5968 40.105C16.23 40.1145 16.8631 40.1229 17.4962 40.1289C18.1064 40.1352 18.7164 40.1456 19.3265 40.1567C19.5161 40.1575 19.7057 40.1582 19.9011 40.159C20.3763 40.1691 20.8504 40.2148 21.323 40.2654C21.7152 40.5707 21.7152 40.5707 22.0072 40.9496C22.0927 41.6338 22.0927 41.6338 22.0072 42.318C21.7191 42.6971 21.7191 42.6971 21.323 43.0022C20.8807 43.0906 20.8807 43.0906 20.374 43.0944C20.0884 43.0987 20.0884 43.0987 19.7971 43.1031C19.5918 43.1025 19.3865 43.1018 19.1751 43.1011C18.9627 43.1023 18.7503 43.1035 18.5315 43.1047C18.0815 43.1062 17.6316 43.1059 17.1817 43.1039C16.4973 43.102 15.8134 43.1085 15.1291 43.1158C14.6912 43.1162 14.2534 43.116 13.8155 43.1153C13.6125 43.1179 13.4096 43.1205 13.2005 43.1231C11.8333 43.108 10.8467 42.8295 9.69158 42.0899C9.23811 41.7158 9.23811 41.7158 8.9361 41.3487C8.8335 41.2299 8.7309 41.1112 8.62518 40.9888C7.57949 39.2737 7.53518 37.6899 7.54008 35.7272C7.53889 35.4467 7.53769 35.1661 7.53646 34.8771C7.535 34.2855 7.5353 33.694 7.53724 33.1024C7.53918 32.202 7.53262 31.3019 7.52538 30.4015C7.52502 29.8248 7.52515 29.2481 7.52583 28.6714C7.52327 28.4045 7.52071 28.1377 7.51807 27.8627C7.53445 25.9164 7.87652 24.3454 9.00916 22.739C9.24817 22.4889 9.24817 22.4889 9.49202 22.2339C9.67018 22.0469 9.84834 21.8599 10.0319 21.6672C10.9549 20.7643 11.9161 19.9087 12.8845 19.0552C13.7458 18.2707 13.7458 18.2707 14.2529 17.2306C14.2745 16.6049 14.2842 15.9838 14.285 15.358C14.2892 14.9808 14.2936 14.6037 14.2984 14.2266C14.305 13.633 14.3099 13.0395 14.31 12.4459C14.3108 11.8722 14.3187 11.299 14.3278 10.7254C14.3261 10.5488 14.3245 10.3723 14.3229 10.1904C14.342 9.33846 14.4567 8.8299 14.92 8.10962C15.9117 7.46229 16.7124 7.49566 17.8735 7.5164Z" fill="#002D62"/>
<path d="M12.509 0.747158C12.7031 0.744984 12.8971 0.74281 13.0971 0.74057C13.3047 0.740778 13.5124 0.740986 13.7263 0.7412C13.9411 0.740223 14.1559 0.739246 14.3771 0.738239C14.8305 0.73693 15.2839 0.736814 15.7372 0.737804C16.432 0.738526 17.1266 0.733167 17.8213 0.727391C18.2618 0.726873 18.7024 0.726713 19.1429 0.726946C19.3511 0.724846 19.5592 0.722745 19.7736 0.720581C19.9669 0.722002 20.1603 0.723422 20.3595 0.724886C20.5294 0.724742 20.6994 0.724599 20.8745 0.724451C21.3229 0.809798 21.3229 0.809798 21.7199 1.11444C22.0071 1.494 22.0071 1.494 22.0927 2.1782C22.0071 2.8624 22.0071 2.8624 21.7158 3.24201C21.3229 3.5466 21.3229 3.5466 20.4259 3.63074C20.0508 3.63403 19.6757 3.63397 19.3006 3.63124C18.8923 3.6352 18.484 3.63921 18.0757 3.64326C17.4325 3.64556 16.7894 3.64638 16.1463 3.64599C15.5252 3.64681 14.9043 3.65305 14.2831 3.65975C14.0916 3.65788 13.9001 3.65601 13.7028 3.65409C12.7781 3.66583 12.3136 3.70284 11.5142 4.20948C11.0505 4.65028 11.0505 4.65028 10.8319 5.14307C10.8074 5.66235 10.7964 6.18229 10.7918 6.70212C10.7865 7.01869 10.781 7.33525 10.7753 7.65181C10.7673 8.1508 10.7606 8.64967 10.7575 9.14872C10.754 9.63048 10.7448 10.1119 10.7347 10.5935C10.7314 10.882 10.7281 11.1706 10.7247 11.4678C10.6038 12.2132 10.6038 12.2132 10.1751 12.7634C9.69151 13.1254 9.69151 13.1254 9.12135 13.2395C8.55118 13.1254 8.55118 13.1254 8.06748 12.7625C7.63891 12.2132 7.63891 12.2132 7.51725 11.4758C7.51477 11.1894 7.51229 10.9029 7.50973 10.6078C7.50832 10.4525 7.50691 10.2972 7.50545 10.1372C7.50383 9.80864 7.50455 9.48006 7.50745 9.15151C7.51059 8.6557 7.50288 8.1609 7.49414 7.66517C7.4846 5.98427 7.60791 4.58134 8.44383 3.07989C9.39156 1.82097 10.9052 0.757064 12.509 0.747158Z" fill="#EF7824"/>
<path d="M44.0157 19.6111C44.8139 19.7394 44.8139 19.7394 45.4838 20.1813C45.954 20.8794 46.0427 21.1152 46.0825 21.9203C46.0416 22.6649 45.9875 22.888 45.5266 23.5025C45.042 23.8446 45.042 23.8446 44.5858 24.0726C44.4677 24.5771 44.3721 25.0869 44.2865 25.5978C43.4784 29.9219 41.529 33.5049 38.428 36.6163C38.3142 36.7391 38.2004 36.8619 38.0831 36.9884C37.0887 38.0366 36.036 38.7811 34.7932 39.5099C34.6199 39.6147 34.4466 39.7195 34.268 39.8275C33.758 40.1329 33.2441 40.4294 32.7263 40.7215C32.4771 40.8634 32.4771 40.8634 32.2229 41.0081C32.0642 41.0937 31.9054 41.1794 31.7419 41.2676C31.5318 41.3822 31.5318 41.3822 31.3174 41.4991C30.9018 41.6338 30.9018 41.6338 30.3932 41.5427C30.26 41.4975 30.1268 41.4523 29.9895 41.4057C29.8766 40.8413 29.8766 40.8413 29.7615 40.2654C29.9931 40.1549 30.2248 40.0443 30.4635 39.9304C34.7154 37.8734 37.9906 35.4715 40.4806 31.3708C41.6798 29.1648 42.9777 26.4116 42.7613 23.8446C42.6061 23.6705 42.4508 23.4965 42.2909 23.3172C41.849 22.7042 41.849 22.7042 41.7991 22.2089C41.8354 21.6549 41.9083 21.1807 42.0771 20.6516C42.697 19.9041 43.0595 19.7647 44.0157 19.6111Z" fill="#EF7824"/>
<path d="M7.41087 7.42374C7.48613 7.42374 7.56139 7.42374 7.63893 7.42374C7.72401 8.17729 7.76203 8.73667 7.63893 9.47635C7.31041 10.058 6.92154 10.5603 6.51553 11.0906C4.88923 13.3815 3.38588 16.4605 3.19163 19.2832C3.25345 19.9972 3.25345 19.9972 3.7618 20.5376C4.21793 21.1078 4.21793 21.1078 4.33196 21.906C4.21793 22.7042 4.21793 22.7042 3.89008 23.3599C3.29385 23.8544 3.03396 23.9679 2.29361 24.1011C1.48337 24.1439 1.27741 24.0875 0.554603 23.645C0.0413415 22.8172 -0.0387206 22.3135 0.0138346 21.3563C0.112723 20.8797 0.112723 20.8797 0.540349 20.3095C1.02499 19.9674 1.02499 19.9674 1.48112 19.7394C1.60487 19.2689 1.70519 18.7921 1.79472 18.3139C2.66852 14.0777 4.31455 10.5201 7.41087 7.42374Z" fill="#EF7824"/>
<path d="M29.9895 2.40627C31.961 2.40627 33.5767 3.41342 35.1693 4.49618C37.6697 6.2736 39.7117 8.27185 41.3929 10.8448C41.6147 11.1543 41.6147 11.1543 41.841 11.4702C42.3995 12.3642 42.7812 13.2709 43.1604 14.2515C43.2324 14.4278 43.3045 14.604 43.3787 14.7856C43.8072 15.8828 43.9831 16.7376 43.9016 17.9148C43.3372 18.0277 43.3372 18.0277 42.7613 18.1429C42.6672 17.8936 42.5731 17.6443 42.4762 17.3874C42.4124 17.2196 42.3486 17.0517 42.2829 16.8787C42.1457 16.5053 42.0156 16.1292 41.8927 15.7509C40.6319 11.9685 38.3961 9.02943 35.3064 6.55424C34.0442 5.63952 32.6895 5.00085 31.2491 4.41895C30.7637 4.21299 30.7637 4.21299 29.9895 3.77468C29.7641 3.15105 29.7641 3.15105 29.7615 2.63434C29.8367 2.55908 29.912 2.48382 29.9895 2.40627Z" fill="#EF7824"/>
<path d="M2.16523 25.8972C2.54154 25.8972 2.91785 25.8972 3.30557 25.8972C3.40376 26.1621 3.50195 26.4269 3.60312 26.6999C4.43953 28.9249 5.27412 31.0432 6.71232 32.953C7.60421 34.1654 7.60421 34.1654 7.76891 34.9753C7.76713 35.5473 7.76713 35.5473 7.63884 36.3883C5.16667 34.5309 3.44105 31.2884 2.3933 28.4059C2.13805 27.5491 2.10845 26.7868 2.16523 25.8972Z" fill="#EF7824"/>
<path d="M25.7703 39.4529C26.5977 39.5859 27.0494 39.7567 27.7088 40.2654C28.165 40.9496 28.165 40.9496 28.2648 41.591C28.1634 42.3294 28.0737 42.5208 27.6233 43.0735C27.0246 43.6864 27.0246 43.6864 26.5685 43.9145C25.9413 44.0285 25.9413 44.0285 25.2001 43.9145C24.6179 43.4587 24.2076 42.9531 23.8317 42.318C23.6749 41.6195 23.6749 41.6195 23.8317 40.9496C24.4004 40.0189 24.6762 39.6287 25.7703 39.4529Z" fill="#EF7824"/>
<path d="M16.798 23.686C17.2177 23.8446 17.2177 23.8446 17.8021 24.3007C18.1343 24.994 18.1835 25.2798 18.1442 26.0255C18.0186 26.7712 17.9151 27.0216 17.4172 27.6219C16.7615 27.9498 16.7615 27.9498 15.9633 28.0923C15.1651 27.9498 15.1651 27.9498 14.4951 27.3796C14.0945 26.8148 13.9255 26.3449 13.8679 25.6549C14.0247 24.7568 14.0247 24.7568 14.5949 24.0584C15.3324 23.5429 15.9288 23.5025 16.798 23.686Z" fill="#EF7824"/>
<path d="M25.4147 0.00889704C26.2433 -0.036698 26.7276 0.0889665 27.4665 0.481958C27.9368 1.03787 27.9368 1.03787 28.1649 1.82185C28.1649 2.63434 28.1649 2.63434 27.8798 3.27578C27.4807 3.77468 27.4807 3.77468 26.7965 4.23081C26.1091 4.30719 25.6334 4.35882 24.972 4.23081C24.2719 3.63848 24.0872 3.17935 23.8174 2.30649C23.8316 1.49401 23.8316 1.49401 24.2735 0.710025C24.972 0.125603 24.972 0.125603 25.4147 0.00889704Z" fill="#EF7824"/>
<path d="M9.647 14.8484C10.1477 14.95 10.1477 14.95 10.8461 15.4204C11.288 16.0903 11.288 16.0903 11.4163 16.8885C11.288 17.6868 11.288 17.6868 10.8604 18.3425C10.3757 18.8271 10.3757 18.8271 9.91961 19.0552C9.16413 19.1407 9.16413 19.1407 8.32314 19.0552C7.65319 18.6133 7.65319 18.6133 7.1828 17.9148C7.03788 17.2004 7.04407 16.5773 7.1828 15.8622C7.75865 14.8357 8.5517 14.7942 9.647 14.8484Z" fill="#EF7824"/>
<path d="M62.9916 27.5H56.091V7.13636H63.1308C65.1526 7.13636 66.8893 7.54403 68.341 8.35938C69.7994 9.16809 70.9196 10.3314 71.7018 11.8494C72.484 13.3674 72.8751 15.1837 72.8751 17.2983C72.8751 19.4195 72.4807 21.2424 71.6919 22.767C70.9097 24.2917 69.7795 25.4616 68.3013 26.277C66.8297 27.0923 65.0598 27.5 62.9916 27.5ZM59.78 24.3082H62.8126C64.2312 24.3082 65.4144 24.0497 66.3623 23.5327C67.3103 23.009 68.0229 22.2301 68.5001 21.196C68.9774 20.1553 69.216 18.8561 69.216 17.2983C69.216 15.7405 68.9774 14.4479 68.5001 13.4205C68.0229 12.3864 67.3169 11.6141 66.3822 11.1037C65.4542 10.5866 64.3008 10.3281 62.922 10.3281H59.78V24.3082ZM82.9824 27.7983C81.4511 27.7983 80.1287 27.4801 79.015 26.8438C77.908 26.2008 77.0562 25.2926 76.4597 24.1193C75.8631 22.9394 75.5648 21.5507 75.5648 19.9531C75.5648 18.3821 75.8631 17.0033 76.4597 15.8168C77.0629 14.6236 77.9047 13.6955 78.9852 13.0327C80.0657 12.3632 81.3351 12.0284 82.7935 12.0284C83.7347 12.0284 84.623 12.1809 85.4582 12.4858C86.3001 12.7841 87.0425 13.2481 87.6855 13.8778C88.3351 14.5076 88.8455 15.3097 89.2168 16.2841C89.588 17.2519 89.7736 18.4053 89.7736 19.7443V20.848H77.2551V18.4219H86.3233C86.3167 17.7325 86.1675 17.1193 85.8758 16.5824C85.5842 16.0388 85.1765 15.6113 84.6528 15.2997C84.1358 14.9882 83.5326 14.8324 82.8432 14.8324C82.1074 14.8324 81.4611 15.0114 80.9043 15.3693C80.3474 15.7206 79.9132 16.1847 79.6017 16.7614C79.2968 17.3314 79.141 17.9579 79.1344 18.6406V20.7585C79.1344 21.6468 79.2968 22.4091 79.6216 23.0455C79.9464 23.6752 80.4005 24.1591 80.9838 24.4972C81.5671 24.8286 82.2499 24.9943 83.0321 24.9943C83.5558 24.9943 84.0297 24.9214 84.454 24.7756C84.8782 24.6231 85.2461 24.401 85.5577 24.1094C85.8692 23.8177 86.1045 23.4564 86.2636 23.0256L89.6244 23.4034C89.4123 24.2917 89.0079 25.0672 88.4114 25.7301C87.8214 26.3864 87.0657 26.8968 86.1443 27.2614C85.2229 27.6193 84.1689 27.7983 82.9824 27.7983ZM99.4806 27.7983C97.956 27.7983 96.6468 27.4635 95.553 26.794C94.4659 26.1245 93.6274 25.1998 93.0374 24.0199C92.4541 22.8333 92.1624 21.4678 92.1624 19.9233C92.1624 18.3722 92.4607 17.0033 93.0573 15.8168C93.6539 14.6236 94.4958 13.6955 95.5829 13.0327C96.6766 12.3632 97.9692 12.0284 99.4607 12.0284C100.7 12.0284 101.797 12.2571 102.752 12.7145C103.713 13.1652 104.479 13.8049 105.049 14.6335C105.619 15.4555 105.944 16.4167 106.023 17.517H102.583C102.444 16.7812 102.112 16.1681 101.589 15.6776C101.072 15.1804 100.379 14.9318 99.5104 14.9318C98.7746 14.9318 98.1283 15.1307 97.5715 15.5284C97.0147 15.9195 96.5805 16.483 96.269 17.2188C95.964 17.9545 95.8116 18.8362 95.8116 19.8636C95.8116 20.9044 95.964 21.7992 96.269 22.5483C96.5739 23.2907 97.0014 23.8641 97.5516 24.2685C98.1084 24.6662 98.7614 24.8651 99.5104 24.8651C100.041 24.8651 100.515 24.7656 100.932 24.5668C101.357 24.3613 101.711 24.0663 101.996 23.6818C102.281 23.2973 102.477 22.83 102.583 22.2798H106.023C105.937 23.3603 105.619 24.3182 105.069 25.1534C104.518 25.982 103.769 26.6316 102.822 27.1023C101.874 27.5663 100.76 27.7983 99.4806 27.7983ZM115.641 27.7983C114.149 27.7983 112.857 27.4702 111.763 26.8139C110.669 26.1577 109.821 25.2396 109.217 24.0597C108.621 22.8797 108.323 21.5009 108.323 19.9233C108.323 18.3456 108.621 16.9635 109.217 15.777C109.821 14.5904 110.669 13.669 111.763 13.0128C112.857 12.3565 114.149 12.0284 115.641 12.0284C117.132 12.0284 118.425 12.3565 119.519 13.0128C120.612 13.669 121.458 14.5904 122.054 15.777C122.657 16.9635 122.959 18.3456 122.959 19.9233C122.959 21.5009 122.657 22.8797 122.054 24.0597C121.458 25.2396 120.612 26.1577 119.519 26.8139C118.425 27.4702 117.132 27.7983 115.641 27.7983ZM115.661 24.9148C116.469 24.9148 117.145 24.6927 117.689 24.2486C118.233 23.7978 118.637 23.1946 118.902 22.4389C119.174 21.6832 119.31 20.8414 119.31 19.9134C119.31 18.9787 119.174 18.1335 118.902 17.3778C118.637 16.6155 118.233 16.009 117.689 15.5582C117.145 15.1075 116.469 14.8821 115.661 14.8821C114.832 14.8821 114.143 15.1075 113.592 15.5582C113.049 16.009 112.641 16.6155 112.369 17.3778C112.104 18.1335 111.972 18.9787 111.972 19.9134C111.972 20.8414 112.104 21.6832 112.369 22.4389C112.641 23.1946 113.049 23.7978 113.592 24.2486C114.143 24.6927 114.832 24.9148 115.661 24.9148ZM131.682 27.7685C130.482 27.7685 129.408 27.4602 128.46 26.8438C127.512 26.2273 126.763 25.3324 126.213 24.1591C125.663 22.9858 125.388 21.5606 125.388 19.8835C125.388 18.1866 125.666 16.7547 126.223 15.5881C126.786 14.4148 127.545 13.5298 128.5 12.9332C129.454 12.33 130.518 12.0284 131.692 12.0284C132.586 12.0284 133.322 12.1809 133.899 12.4858C134.476 12.7841 134.933 13.1454 135.271 13.5696C135.609 13.9872 135.871 14.3816 136.057 14.7528H136.206V7.13636H139.815V27.5H136.275V25.0938H136.057C135.871 25.465 135.603 25.8594 135.251 26.277C134.9 26.688 134.436 27.0393 133.859 27.331C133.282 27.6226 132.557 27.7685 131.682 27.7685ZM132.686 24.8153C133.448 24.8153 134.098 24.6098 134.635 24.1989C135.172 23.7812 135.579 23.2012 135.858 22.4588C136.136 21.7164 136.275 20.8513 136.275 19.8636C136.275 18.8759 136.136 18.0175 135.858 17.2884C135.586 16.5592 135.182 15.9924 134.645 15.5881C134.114 15.1837 133.461 14.9815 132.686 14.9815C131.884 14.9815 131.214 15.1903 130.677 15.608C130.14 16.0256 129.736 16.6023 129.464 17.3381C129.192 18.0739 129.057 18.9157 129.057 19.8636C129.057 20.8182 129.192 21.67 129.464 22.419C129.743 23.1615 130.15 23.7481 130.687 24.179C131.231 24.6032 131.897 24.8153 132.686 24.8153ZM150.412 27.7983C148.881 27.7983 147.558 27.4801 146.445 26.8438C145.338 26.2008 144.486 25.2926 143.889 24.1193C143.293 22.9394 142.994 21.5507 142.994 19.9531C142.994 18.3821 143.293 17.0033 143.889 15.8168C144.493 14.6236 145.334 13.6955 146.415 13.0327C147.495 12.3632 148.765 12.0284 150.223 12.0284C151.164 12.0284 152.053 12.1809 152.888 12.4858C153.73 12.7841 154.472 13.2481 155.115 13.8778C155.765 14.5076 156.275 15.3097 156.646 16.2841C157.018 17.2519 157.203 18.4053 157.203 19.7443V20.848H144.685V18.4219H153.753C153.746 17.7325 153.597 17.1193 153.306 16.5824C153.014 16.0388 152.606 15.6113 152.083 15.2997C151.565 14.9882 150.962 14.8324 150.273 14.8324C149.537 14.8324 148.891 15.0114 148.334 15.3693C147.777 15.7206 147.343 16.1847 147.031 16.7614C146.726 17.3314 146.571 17.9579 146.564 18.6406V20.7585C146.564 21.6468 146.726 22.4091 147.051 23.0455C147.376 23.6752 147.83 24.1591 148.413 24.4972C148.997 24.8286 149.68 24.9943 150.462 24.9943C150.985 24.9943 151.459 24.9214 151.884 24.7756C152.308 24.6231 152.676 24.401 152.987 24.1094C153.299 23.8177 153.534 23.4564 153.693 23.0256L157.054 23.4034C156.842 24.2917 156.438 25.0672 155.841 25.7301C155.251 26.3864 154.495 26.8968 153.574 27.2614C152.653 27.6193 151.599 27.7983 150.412 27.7983ZM160.248 27.5V12.2273H163.738V14.7727H163.898C164.176 13.8911 164.653 13.2116 165.329 12.7344C166.012 12.2505 166.791 12.0085 167.666 12.0085C167.865 12.0085 168.087 12.0185 168.332 12.0384C168.584 12.0516 168.793 12.0748 168.959 12.108V15.419C168.806 15.366 168.564 15.3196 168.233 15.2798C167.908 15.2334 167.593 15.2102 167.288 15.2102C166.632 15.2102 166.042 15.3527 165.518 15.6378C165.001 15.9162 164.594 16.304 164.295 16.8011C163.997 17.2983 163.848 17.8717 163.848 18.5213V27.5H160.248ZM171.151 27.5V25.2131L179.026 15.3395V15.2102H171.41V12.2273H183.431V14.6832L175.934 24.3878V24.517H183.689V27.5H171.151Z" fill="#002D62"/>
<path d="M59.9121 33.9545C59.8609 33.5227 59.6535 33.1875 59.2899 32.9489C58.9263 32.7102 58.4802 32.5909 57.9518 32.5909C57.5655 32.5909 57.2274 32.6534 56.9376 32.7784C56.6507 32.9034 56.4263 33.0753 56.2643 33.294C56.1052 33.5128 56.0257 33.7614 56.0257 34.0398C56.0257 34.2727 56.0811 34.473 56.1919 34.6406C56.3055 34.8054 56.4504 34.9432 56.6266 35.054C56.8027 35.1619 56.9873 35.2514 57.1805 35.3224C57.3737 35.3906 57.5513 35.446 57.7132 35.4886L58.5996 35.7273C58.8268 35.7869 59.0797 35.8693 59.3581 35.9744C59.6393 36.0795 59.9078 36.223 60.1635 36.4048C60.422 36.5838 60.6351 36.8139 60.8027 37.0952C60.9703 37.3764 61.0541 37.7216 61.0541 38.1307C61.0541 38.6023 60.9305 39.0284 60.6834 39.4091C60.4391 39.7898 60.0811 40.0923 59.6095 40.3168C59.1408 40.5412 58.5712 40.6534 57.9007 40.6534C57.2757 40.6534 56.7345 40.5526 56.2771 40.3509C55.8226 40.1491 55.4646 39.8679 55.2033 39.5071C54.9447 39.1463 54.7984 38.7273 54.7643 38.25H55.8552C55.8837 38.5795 55.9945 38.8523 56.1876 39.0682C56.3837 39.2812 56.6308 39.4403 56.9291 39.5455C57.2302 39.6477 57.5541 39.6989 57.9007 39.6989C58.3041 39.6989 58.6663 39.6335 58.9873 39.5028C59.3084 39.3693 59.5626 39.1847 59.7501 38.9489C59.9376 38.7102 60.0314 38.4318 60.0314 38.1136C60.0314 37.8239 59.9504 37.5881 59.7885 37.4062C59.6266 37.2244 59.4135 37.0767 59.1493 36.9631C58.8851 36.8494 58.5996 36.75 58.2927 36.6648L57.2189 36.358C56.5371 36.1619 55.9973 35.8821 55.5996 35.5185C55.2018 35.1548 55.003 34.679 55.003 34.0909C55.003 33.6023 55.1351 33.1761 55.3993 32.8125C55.6663 32.446 56.0243 32.1619 56.4731 31.9602C56.9248 31.7557 57.4291 31.6534 57.9859 31.6534C58.5484 31.6534 59.0484 31.7543 59.4859 31.956C59.9234 32.1548 60.27 32.4276 60.5257 32.7741C60.7842 33.1207 60.9206 33.5142 60.9348 33.9545H59.9121ZM65.3144 40.6364C64.7235 40.6364 64.205 40.4957 63.759 40.2145C63.3158 39.9332 62.9692 39.5398 62.7192 39.0341C62.4721 38.5284 62.3485 37.9375 62.3485 37.2614C62.3485 36.5795 62.4721 35.9844 62.7192 35.4759C62.9692 34.9673 63.3158 34.5724 63.759 34.2912C64.205 34.0099 64.7235 33.8693 65.3144 33.8693C65.9053 33.8693 66.4224 34.0099 66.8655 34.2912C67.3116 34.5724 67.6582 34.9673 67.9053 35.4759C68.1553 35.9844 68.2803 36.5795 68.2803 37.2614C68.2803 37.9375 68.1553 38.5284 67.9053 39.0341C67.6582 39.5398 67.3116 39.9332 66.8655 40.2145C66.4224 40.4957 65.9053 40.6364 65.3144 40.6364ZM65.3144 39.733C65.7633 39.733 66.1326 39.6179 66.4224 39.3878C66.7121 39.1577 66.9266 38.8551 67.0658 38.4801C67.205 38.1051 67.2746 37.6989 67.2746 37.2614C67.2746 36.8239 67.205 36.4162 67.0658 36.0384C66.9266 35.6605 66.7121 35.3551 66.4224 35.1222C66.1326 34.8892 65.7633 34.7727 65.3144 34.7727C64.8655 34.7727 64.4962 34.8892 64.2065 35.1222C63.9167 35.3551 63.7022 35.6605 63.563 36.0384C63.4238 36.4162 63.3542 36.8239 63.3542 37.2614C63.3542 37.6989 63.4238 38.1051 63.563 38.4801C63.7022 38.8551 63.9167 39.1577 64.2065 39.3878C64.4962 39.6179 64.8655 39.733 65.3144 39.733ZM72.7302 33.9545V34.8068H69.2018V33.9545H72.7302ZM70.2587 40.5V33.0511C70.2587 32.6761 70.3467 32.3636 70.5229 32.1136C70.699 31.8636 70.9277 31.6761 71.2089 31.5511C71.4902 31.4261 71.7871 31.3636 72.0996 31.3636C72.3467 31.3636 72.5484 31.3835 72.7047 31.4233C72.8609 31.4631 72.9774 31.5 73.0541 31.5341L72.7643 32.4034C72.7132 32.3864 72.6422 32.3651 72.5513 32.3395C72.4632 32.3139 72.3467 32.3011 72.2018 32.3011C71.8695 32.3011 71.6294 32.3849 71.4817 32.5526C71.3368 32.7202 71.2643 32.9659 71.2643 33.2898V40.5H70.2587ZM76.9863 33.9545V34.8068H73.5942V33.9545H76.9863ZM74.5829 32.3864H75.5886V38.625C75.5886 38.9091 75.6297 39.1222 75.7121 39.2642C75.7974 39.4034 75.9053 39.4972 76.036 39.5455C76.1695 39.5909 76.3101 39.6136 76.4579 39.6136C76.5687 39.6136 76.6596 39.608 76.7306 39.5966C76.8016 39.5824 76.8584 39.571 76.9011 39.5625L77.1056 40.4659C77.0374 40.4915 76.9422 40.517 76.8201 40.5426C76.6979 40.571 76.5431 40.5852 76.3556 40.5852C76.0715 40.5852 75.7931 40.5241 75.5204 40.402C75.2505 40.2798 75.0261 40.0938 74.8471 39.8438C74.6709 39.5938 74.5829 39.2784 74.5829 38.8977V32.3864ZM79.982 40.5L77.9877 33.9545H79.0445L80.4593 38.9659H80.5275L81.9252 33.9545H82.9991L84.3797 38.9489H84.4479L85.8627 33.9545H86.9195L84.9252 40.5H83.9366L82.5047 35.4716H82.4025L80.9707 40.5H79.982ZM90.1752 40.6534C89.7604 40.6534 89.384 40.5753 89.0459 40.419C88.7079 40.2599 88.4394 40.0312 88.2405 39.733C88.0417 39.4318 87.9422 39.0682 87.9422 38.642C87.9422 38.267 88.0161 37.9631 88.1638 37.7301C88.3116 37.4943 88.509 37.3097 88.7562 37.1761C89.0033 37.0426 89.2761 36.9432 89.5744 36.8778C89.8755 36.8097 90.178 36.7557 90.482 36.7159C90.8797 36.6648 91.2022 36.6264 91.4494 36.6009C91.6994 36.5724 91.8812 36.5256 91.9948 36.4602C92.1113 36.3949 92.1695 36.2812 92.1695 36.1193V36.0852C92.1695 35.6648 92.0545 35.3381 91.8244 35.1051C91.5971 34.8722 91.2519 34.7557 90.7888 34.7557C90.3087 34.7557 89.9323 34.8608 89.6596 35.071C89.3869 35.2812 89.1951 35.5057 89.0843 35.7443L88.1297 35.4034C88.3002 35.0057 88.5275 34.696 88.8116 34.4744C89.0985 34.25 89.411 34.0937 89.7491 34.0057C90.09 33.9148 90.4252 33.8693 90.7547 33.8693C90.965 33.8693 91.2065 33.8949 91.4792 33.946C91.7547 33.9943 92.0204 34.0952 92.2761 34.2486C92.5346 34.402 92.7491 34.6335 92.9195 34.9432C93.09 35.2528 93.1752 35.6676 93.1752 36.1875V40.5H92.1695V39.6136H92.1184C92.0502 39.7557 91.9366 39.9077 91.7775 40.0696C91.6184 40.2315 91.4067 40.3693 91.1425 40.483C90.8783 40.5966 90.5559 40.6534 90.1752 40.6534ZM90.3286 39.75C90.7263 39.75 91.0616 39.6719 91.3343 39.5156C91.6099 39.3594 91.8172 39.1577 91.9565 38.9105C92.0985 38.6634 92.1695 38.4034 92.1695 38.1307V37.2102C92.1269 37.2614 92.0332 37.3082 91.8883 37.3509C91.7462 37.3906 91.5815 37.4261 91.394 37.4574C91.2093 37.4858 91.0289 37.5114 90.8528 37.5341C90.6795 37.554 90.5388 37.571 90.4309 37.5852C90.1695 37.6193 89.9252 37.6747 89.6979 37.7514C89.4735 37.8253 89.2917 37.9375 89.1525 38.0881C89.0161 38.2358 88.9479 38.4375 88.9479 38.6932C88.9479 39.0426 89.0772 39.3068 89.3357 39.4858C89.5971 39.6619 89.928 39.75 90.3286 39.75ZM95.0108 40.5V33.9545H95.9824V34.9432H96.0506C96.1699 34.6193 96.3858 34.3565 96.6983 34.1548C97.0108 33.9531 97.3631 33.8523 97.7551 33.8523C97.829 33.8523 97.9213 33.8537 98.0321 33.8565C98.1429 33.8594 98.2267 33.8636 98.2835 33.8693V34.892C98.2494 34.8835 98.1713 34.8707 98.0491 34.8537C97.9298 34.8338 97.8034 34.8239 97.6699 34.8239C97.3517 34.8239 97.0676 34.8906 96.8176 35.0241C96.5704 35.1548 96.3744 35.3366 96.2295 35.5696C96.0875 35.7997 96.0165 36.0625 96.0165 36.358V40.5H95.0108ZM102.021 40.6364C101.39 40.6364 100.846 40.4972 100.389 40.2188C99.9341 39.9375 99.5832 39.5455 99.3361 39.0426C99.0918 38.5369 98.9696 37.9489 98.9696 37.2784C98.9696 36.608 99.0918 36.017 99.3361 35.5057C99.5832 34.9915 99.927 34.5909 100.367 34.304C100.811 34.0142 101.328 33.8693 101.918 33.8693C102.259 33.8693 102.596 33.9261 102.928 34.0398C103.261 34.1534 103.563 34.3381 103.836 34.5938C104.109 34.8466 104.326 35.1818 104.488 35.5994C104.65 36.017 104.731 36.5312 104.731 37.142V37.5682H99.6855V36.6989H103.708C103.708 36.3295 103.634 36 103.487 35.7102C103.342 35.4205 103.134 35.1918 102.864 35.0241C102.597 34.8565 102.282 34.7727 101.918 34.7727C101.518 34.7727 101.171 34.8722 100.879 35.071C100.589 35.267 100.366 35.5227 100.21 35.8381C100.053 36.1534 99.9753 36.4915 99.9753 36.8523V37.4318C99.9753 37.9261 100.061 38.3452 100.231 38.6889C100.404 39.0298 100.644 39.2898 100.951 39.4688C101.258 39.6449 101.614 39.733 102.021 39.733C102.285 39.733 102.524 39.696 102.737 39.6222C102.953 39.5455 103.139 39.4318 103.295 39.2812C103.451 39.1278 103.572 38.9375 103.657 38.7102L104.629 38.983C104.526 39.3125 104.355 39.6023 104.113 39.8523C103.872 40.0994 103.573 40.2926 103.218 40.4318C102.863 40.5682 102.464 40.6364 102.021 40.6364ZM112.107 40.6193C111.534 40.6193 111.039 40.5142 110.624 40.304C110.21 40.0937 109.89 39.8054 109.666 39.4389C109.441 39.0724 109.329 38.6534 109.329 38.1818C109.329 37.8182 109.406 37.4957 109.559 37.2145C109.715 36.9304 109.93 36.6676 110.203 36.4261C110.478 36.1818 110.795 35.9375 111.153 35.6932L112.414 34.7557C112.661 34.5937 112.859 34.4205 113.007 34.2358C113.157 34.0511 113.232 33.8097 113.232 33.5114C113.232 33.2898 113.134 33.0753 112.938 32.8679C112.745 32.6605 112.491 32.5568 112.176 32.5568C111.954 32.5568 111.758 32.6136 111.587 32.7273C111.42 32.8381 111.288 32.9801 111.191 33.1534C111.097 33.3239 111.051 33.5 111.051 33.6818C111.051 33.8864 111.106 34.0938 111.217 34.304C111.33 34.5114 111.474 34.7244 111.647 34.9432C111.823 35.1591 112.005 35.3807 112.193 35.608L116.198 40.5H114.988L111.681 36.5114C111.374 36.142 111.096 35.8068 110.846 35.5057C110.596 35.2045 110.397 34.9077 110.249 34.6151C110.102 34.3224 110.028 34.0057 110.028 33.6648C110.028 33.2727 110.114 32.929 110.288 32.6335C110.464 32.3352 110.71 32.1037 111.025 31.9389C111.343 31.7713 111.715 31.6875 112.141 31.6875C112.579 31.6875 112.955 31.7727 113.271 31.9432C113.586 32.1108 113.829 32.3338 113.999 32.6122C114.17 32.8878 114.255 33.1875 114.255 33.5114C114.255 33.929 114.151 34.2912 113.944 34.598C113.737 34.9048 113.454 35.1903 113.096 35.4545L111.357 36.75C110.965 37.0398 110.7 37.321 110.561 37.5938C110.421 37.8665 110.352 38.0625 110.352 38.1818C110.352 38.4545 110.423 38.7088 110.565 38.9446C110.707 39.1804 110.907 39.3707 111.166 39.5156C111.424 39.6605 111.727 39.733 112.073 39.733C112.403 39.733 112.724 39.6634 113.036 39.5241C113.349 39.3821 113.632 39.1776 113.884 38.9105C114.14 38.6435 114.342 38.3224 114.489 37.9474C114.64 37.5724 114.715 37.1506 114.715 36.6818H115.687C115.687 37.2614 115.62 37.7344 115.487 38.1009C115.353 38.4673 115.203 38.7543 115.035 38.9616C114.867 39.169 114.732 39.3239 114.63 39.4261C114.596 39.4687 114.565 39.5114 114.536 39.554C114.508 39.5966 114.477 39.6392 114.443 39.6818C114.161 39.9972 113.806 40.233 113.377 40.3892C112.948 40.5426 112.525 40.6193 112.107 40.6193ZM121.181 40.5H120.073L123.277 31.7727H124.368L127.573 40.5H126.465L123.857 33.1534H123.789L121.181 40.5ZM121.59 37.0909H126.056V38.0284H121.59V37.0909ZM129.989 31.7727V40.5H128.932V31.7727H129.989ZM140.256 33.9545C140.205 33.5227 139.997 33.1875 139.634 32.9489C139.27 32.7102 138.824 32.5909 138.296 32.5909C137.909 32.5909 137.571 32.6534 137.281 32.7784C136.994 32.9034 136.77 33.0753 136.608 33.294C136.449 33.5128 136.369 33.7614 136.369 34.0398C136.369 34.2727 136.425 34.473 136.536 34.6406C136.649 34.8054 136.794 34.9432 136.97 35.054C137.146 35.1619 137.331 35.2514 137.524 35.3224C137.717 35.3906 137.895 35.446 138.057 35.4886L138.943 35.7273C139.171 35.7869 139.423 35.8693 139.702 35.9744C139.983 36.0795 140.252 36.223 140.507 36.4048C140.766 36.5838 140.979 36.8139 141.146 37.0952C141.314 37.3764 141.398 37.7216 141.398 38.1307C141.398 38.6023 141.274 39.0284 141.027 39.4091C140.783 39.7898 140.425 40.0923 139.953 40.3168C139.485 40.5412 138.915 40.6534 138.244 40.6534C137.619 40.6534 137.078 40.5526 136.621 40.3509C136.166 40.1491 135.808 39.8679 135.547 39.5071C135.288 39.1463 135.142 38.7273 135.108 38.25H136.199C136.227 38.5795 136.338 38.8523 136.531 39.0682C136.727 39.2812 136.975 39.4403 137.273 39.5455C137.574 39.6477 137.898 39.6989 138.244 39.6989C138.648 39.6989 139.01 39.6335 139.331 39.5028C139.652 39.3693 139.906 39.1847 140.094 38.9489C140.281 38.7102 140.375 38.4318 140.375 38.1136C140.375 37.8239 140.294 37.5881 140.132 37.4062C139.97 37.2244 139.757 37.0767 139.493 36.9631C139.229 36.8494 138.943 36.75 138.636 36.6648L137.563 36.358C136.881 36.1619 136.341 35.8821 135.943 35.5185C135.546 35.1548 135.347 34.679 135.347 34.0909C135.347 33.6023 135.479 33.1761 135.743 32.8125C136.01 32.446 136.368 32.1619 136.817 31.9602C137.269 31.7557 137.773 31.6534 138.33 31.6534C138.892 31.6534 139.392 31.7543 139.83 31.956C140.267 32.1548 140.614 32.4276 140.869 32.7741C141.128 33.1207 141.264 33.5142 141.279 33.9545H140.256ZM145.658 40.6364C145.067 40.6364 144.549 40.4957 144.103 40.2145C143.66 39.9332 143.313 39.5398 143.063 39.0341C142.816 38.5284 142.692 37.9375 142.692 37.2614C142.692 36.5795 142.816 35.9844 143.063 35.4759C143.313 34.9673 143.66 34.5724 144.103 34.2912C144.549 34.0099 145.067 33.8693 145.658 33.8693C146.249 33.8693 146.766 34.0099 147.209 34.2912C147.655 34.5724 148.002 34.9673 148.249 35.4759C148.499 35.9844 148.624 36.5795 148.624 37.2614C148.624 37.9375 148.499 38.5284 148.249 39.0341C148.002 39.5398 147.655 39.9332 147.209 40.2145C146.766 40.4957 146.249 40.6364 145.658 40.6364ZM145.658 39.733C146.107 39.733 146.476 39.6179 146.766 39.3878C147.056 39.1577 147.27 38.8551 147.41 38.4801C147.549 38.1051 147.618 37.6989 147.618 37.2614C147.618 36.8239 147.549 36.4162 147.41 36.0384C147.27 35.6605 147.056 35.3551 146.766 35.1222C146.476 34.8892 146.107 34.7727 145.658 34.7727C145.209 34.7727 144.84 34.8892 144.55 35.1222C144.26 35.3551 144.046 35.6605 143.907 36.0384C143.768 36.4162 143.698 36.8239 143.698 37.2614C143.698 37.6989 143.768 38.1051 143.907 38.4801C144.046 38.8551 144.26 39.1577 144.55 39.3878C144.84 39.6179 145.209 39.733 145.658 39.733ZM151.165 31.7727V40.5H150.159V31.7727H151.165ZM157.132 37.8239V33.9545H158.138V40.5H157.132V39.392H157.064C156.91 39.7244 156.672 40.0071 156.348 40.2401C156.024 40.4702 155.615 40.5852 155.121 40.5852C154.711 40.5852 154.348 40.4957 154.03 40.3168C153.711 40.1349 153.461 39.8622 153.28 39.4986C153.098 39.1321 153.007 38.6705 153.007 38.1136V33.9545H154.013V38.0455C154.013 38.5227 154.146 38.9034 154.413 39.1875C154.683 39.4716 155.027 39.6136 155.444 39.6136C155.694 39.6136 155.949 39.5497 156.207 39.4219C156.469 39.294 156.687 39.098 156.863 38.8338C157.042 38.5696 157.132 38.233 157.132 37.8239ZM162.826 33.9545V34.8068H159.434V33.9545H162.826ZM160.423 32.3864H161.428V38.625C161.428 38.9091 161.47 39.1222 161.552 39.2642C161.637 39.4034 161.745 39.4972 161.876 39.5455C162.009 39.5909 162.15 39.6136 162.298 39.6136C162.409 39.6136 162.499 39.608 162.57 39.5966C162.641 39.5824 162.698 39.571 162.741 39.5625L162.945 40.4659C162.877 40.4915 162.782 40.517 162.66 40.5426C162.538 40.571 162.383 40.5852 162.195 40.5852C161.911 40.5852 161.633 40.5241 161.36 40.402C161.09 40.2798 160.866 40.0938 160.687 39.8438C160.511 39.5938 160.423 39.2784 160.423 38.8977V32.3864ZM164.339 40.5V33.9545H165.345V40.5H164.339ZM164.85 32.8636C164.654 32.8636 164.485 32.7969 164.343 32.6634C164.204 32.5298 164.134 32.3693 164.134 32.1818C164.134 31.9943 164.204 31.8338 164.343 31.7003C164.485 31.5668 164.654 31.5 164.85 31.5C165.046 31.5 165.214 31.5668 165.353 31.7003C165.495 31.8338 165.566 31.9943 165.566 32.1818C165.566 32.3693 165.495 32.5298 165.353 32.6634C165.214 32.7969 165.046 32.8636 164.85 32.8636ZM169.846 40.6364C169.255 40.6364 168.736 40.4957 168.29 40.2145C167.847 39.9332 167.5 39.5398 167.25 39.0341C167.003 38.5284 166.88 37.9375 166.88 37.2614C166.88 36.5795 167.003 35.9844 167.25 35.4759C167.5 34.9673 167.847 34.5724 168.29 34.2912C168.736 34.0099 169.255 33.8693 169.846 33.8693C170.437 33.8693 170.954 34.0099 171.397 34.2912C171.843 34.5724 172.189 34.9673 172.437 35.4759C172.687 35.9844 172.812 36.5795 172.812 37.2614C172.812 37.9375 172.687 38.5284 172.437 39.0341C172.189 39.5398 171.843 39.9332 171.397 40.2145C170.954 40.4957 170.437 40.6364 169.846 40.6364ZM169.846 39.733C170.295 39.733 170.664 39.6179 170.954 39.3878C171.243 39.1577 171.458 38.8551 171.597 38.4801C171.736 38.1051 171.806 37.6989 171.806 37.2614C171.806 36.8239 171.736 36.4162 171.597 36.0384C171.458 35.6605 171.243 35.3551 170.954 35.1222C170.664 34.8892 170.295 34.7727 169.846 34.7727C169.397 34.7727 169.027 34.8892 168.738 35.1222C168.448 35.3551 168.233 35.6605 168.094 36.0384C167.955 36.4162 167.885 36.8239 167.885 37.2614C167.885 37.6989 167.955 38.1051 168.094 38.4801C168.233 38.8551 168.448 39.1577 168.738 39.3878C169.027 39.6179 169.397 39.733 169.846 39.733ZM175.352 36.5625V40.5H174.347V33.9545H175.318V34.9773H175.404C175.557 34.6449 175.79 34.3778 176.102 34.1761C176.415 33.9716 176.818 33.8693 177.313 33.8693C177.756 33.8693 178.144 33.9602 178.476 34.142C178.808 34.321 179.067 34.5938 179.252 34.9602C179.436 35.3239 179.529 35.7841 179.529 36.3409V40.5H178.523V36.4091C178.523 35.8949 178.389 35.4943 178.122 35.2074C177.855 34.9176 177.489 34.7727 177.023 34.7727C176.702 34.7727 176.415 34.8423 176.162 34.9815C175.912 35.1207 175.715 35.3239 175.57 35.5909C175.425 35.858 175.352 36.1818 175.352 36.5625ZM186.003 35.4205L185.099 35.6761C185.042 35.5256 184.959 35.3793 184.848 35.2372C184.74 35.0923 184.592 34.973 184.405 34.8793C184.217 34.7855 183.977 34.7386 183.684 34.7386C183.284 34.7386 182.95 34.831 182.683 35.0156C182.419 35.1974 182.287 35.429 182.287 35.7102C182.287 35.9602 182.378 36.1577 182.559 36.3026C182.741 36.4474 183.025 36.5682 183.412 36.6648L184.383 36.9034C184.969 37.0455 185.405 37.2628 185.692 37.5554C185.978 37.8452 186.122 38.2187 186.122 38.6761C186.122 39.0511 186.014 39.3864 185.798 39.6818C185.585 39.9773 185.287 40.2102 184.903 40.3807C184.52 40.5511 184.074 40.6364 183.565 40.6364C182.898 40.6364 182.345 40.4915 181.907 40.2017C181.47 39.9119 181.193 39.4886 181.076 38.9318L182.031 38.6932C182.122 39.0455 182.294 39.3097 182.547 39.4858C182.802 39.6619 183.136 39.75 183.548 39.75C184.017 39.75 184.389 39.6506 184.665 39.4517C184.943 39.25 185.082 39.0085 185.082 38.7273C185.082 38.5 185.003 38.3097 184.844 38.1562C184.684 38 184.44 37.8835 184.111 37.8068L183.02 37.5511C182.42 37.4091 181.98 37.1889 181.699 36.8906C181.42 36.5895 181.281 36.2131 181.281 35.7614C181.281 35.392 181.385 35.0653 181.592 34.7812C181.802 34.4972 182.088 34.2741 182.449 34.1122C182.812 33.9503 183.224 33.8693 183.684 33.8693C184.332 33.8693 184.841 34.0114 185.21 34.2955C185.582 34.5795 185.846 34.9545 186.003 35.4205Z" fill="#002D62"/>
</svg>
