<svg width="190" height="44" viewBox="0 0 190 44" fill="none" xmlns="http://www.w3.org/2000/svg">
<path d="M17.873 7.51637C18.0921 7.51636 18.3113 7.51635 18.5371 7.51634C19.001 7.51756 19.4649 7.52157 19.9288 7.52818C20.6296 7.53764 21.3299 7.53755 22.0308 7.53597C26.0844 7.54924 29.357 8.13418 32.7936 10.3948C35.1239 12.0954 36.804 14.4069 37.7941 17.1139C38.8027 20.3728 38.7002 23.7985 37.6822 27.0378C36.7232 29.6563 34.723 32.0042 32.4835 33.6229C28.9766 35.9284 25.6987 36.2168 21.589 36.24C21.0973 36.2438 20.6056 36.25 20.114 36.2587C19.4022 36.2712 18.6908 36.2762 17.979 36.2795C17.6501 36.2873 17.6501 36.2873 17.3145 36.2952C16.7287 36.2934 16.1953 36.2746 15.6208 36.1602C14.9117 35.6467 14.9117 35.6467 14.4805 35.0198C14.3402 34.5071 14.3402 34.5071 14.3451 33.9926C14.3457 33.8049 14.3463 33.6172 14.3469 33.4238C14.3566 33.1343 14.3566 33.1343 14.3665 32.8389C14.3656 32.5481 14.3656 32.5481 14.3647 32.2514C14.3776 31.4296 14.4018 30.8403 14.7798 30.1021C15.1647 29.7743 15.1647 29.7743 15.9629 29.6745C16.7612 29.7743 16.7612 29.7743 17.1505 30.0344C17.4454 30.4585 17.4454 30.4585 17.5122 31.124C17.5042 31.3701 17.4963 31.6161 17.4881 31.8697C17.4789 32.2414 17.4789 32.2414 17.4694 32.6207C17.4615 32.8103 17.4535 32.9999 17.4454 33.1953C18.7312 33.1851 20.0169 33.1691 21.3026 33.148C21.739 33.1416 22.1754 33.1367 22.6118 33.1335C25.7707 33.1088 28.2263 32.9032 30.8853 31.0429C31.0411 30.9253 31.1969 30.8077 31.3575 30.6866C31.5459 30.5481 31.7344 30.4096 31.9285 30.2669C33.3523 29.0348 34.5098 27.1189 35.0912 25.3279C35.5355 22.8525 35.625 20.023 34.7785 17.6297C33.7846 15.5194 32.5394 13.8064 30.5628 12.5392C28.5089 11.3719 26.594 10.7836 24.2384 10.7503C23.9456 10.7437 23.9456 10.7437 23.647 10.7369C23.029 10.7234 22.411 10.7127 21.7929 10.7022C21.3716 10.6935 20.9504 10.6846 20.5292 10.6755C19.5013 10.6537 18.4733 10.6345 17.4454 10.6167C17.4501 10.7982 17.4549 10.9797 17.4598 11.1667C17.479 12.0001 17.4907 12.8335 17.5024 13.6671C17.51 13.9525 17.5177 14.238 17.5255 14.5321C17.544 16.2948 17.4033 17.7275 16.5331 19.2832C15.8359 20.2709 14.9841 21.0681 14.0965 21.8828C13.9446 22.0225 13.7927 22.1623 13.6362 22.3062C13.3301 22.5858 13.0218 22.8631 12.7114 23.1378C12.4952 23.3333 12.4952 23.3333 12.2747 23.5327C12.1451 23.6477 12.0155 23.7627 11.882 23.8812C11.3637 24.4746 11.1074 24.9182 10.8314 25.6691C10.7265 26.6481 10.7247 27.6224 10.7245 28.6063C10.7228 28.8902 10.721 29.1741 10.7193 29.4667C10.7162 30.2187 10.7167 30.9707 10.718 31.7228C10.7174 32.1832 10.7132 32.6435 10.7078 33.1039C10.6981 33.99 10.696 34.8758 10.696 35.7619C10.6923 36.0361 10.6885 36.3103 10.6847 36.5928C10.6585 37.8948 10.6585 37.8948 11.0784 39.0938C11.4798 39.5078 11.914 39.7804 12.4279 40.0373C13.0847 40.0649 13.737 40.0797 14.3941 40.0854C14.7948 40.0918 15.1956 40.0983 15.5963 40.105C16.2295 40.1144 16.8626 40.1228 17.4958 40.1288C18.1059 40.1351 18.7159 40.1456 19.326 40.1567C19.5156 40.1574 19.7052 40.1582 19.9006 40.1589C20.3758 40.1691 20.8499 40.2148 21.3225 40.2654C21.7147 40.5706 21.7147 40.5706 22.0067 40.9496C22.0922 41.6338 22.0922 41.6338 22.0067 42.318C21.7186 42.6971 21.7186 42.6971 21.3225 43.0022C20.8802 43.0906 20.8802 43.0906 20.3735 43.0943C20.0879 43.0987 20.0879 43.0987 19.7966 43.1031C19.5913 43.1024 19.3861 43.1018 19.1746 43.1011C18.9622 43.1023 18.7498 43.1035 18.531 43.1047C18.0811 43.1062 17.6311 43.1058 17.1812 43.1039C16.4968 43.102 15.8129 43.1085 15.1286 43.1158C14.6907 43.1161 14.2529 43.116 13.815 43.1153C13.6121 43.1179 13.4091 43.1204 13.2 43.1231C11.8328 43.108 10.8462 42.8294 9.69109 42.0899C9.23763 41.7157 9.23763 41.7157 8.93562 41.3487C8.83301 41.2299 8.73041 41.1111 8.6247 40.9888C7.579 39.2737 7.53469 37.6899 7.5396 35.7272C7.5384 35.4466 7.53721 35.1661 7.53597 34.877C7.53451 34.2855 7.53481 33.694 7.53676 33.1024C7.5387 32.202 7.53213 31.3019 7.5249 30.4015C7.52453 29.8248 7.52466 29.2481 7.52534 28.6714C7.52278 28.4045 7.52022 28.1376 7.51758 27.8627C7.53396 25.9164 7.87603 24.3454 9.00867 22.739C9.24768 22.4889 9.24768 22.4889 9.49153 22.2338C9.66969 22.0468 9.84785 21.8599 10.0314 21.6672C10.9544 20.7643 11.9156 19.9087 12.884 19.0551C13.7454 18.2707 13.7454 18.2707 14.2524 17.2306C14.274 16.6048 14.2837 15.9838 14.2845 15.358C14.2887 14.9808 14.2931 14.6037 14.2979 14.2265C14.3045 13.6329 14.3094 13.0395 14.3096 12.4459C14.3103 11.8722 14.3182 11.299 14.3273 10.7253C14.3257 10.5488 14.324 10.3722 14.3224 10.1903C14.3415 9.33843 14.4562 8.82987 14.9195 8.10959C15.9112 7.46226 16.7119 7.49563 17.873 7.51637Z" fill="white"/>
<path d="M12.5095 0.747158C12.7036 0.744984 12.8976 0.74281 13.0976 0.74057C13.3052 0.740778 13.5129 0.740986 13.7268 0.7412C13.9416 0.740223 14.1564 0.739246 14.3776 0.738239C14.831 0.73693 15.2844 0.736814 15.7377 0.737804C16.4325 0.738526 17.127 0.733167 17.8218 0.727391C18.2623 0.726873 18.7029 0.726713 19.1434 0.726946C19.3515 0.724846 19.5597 0.722745 19.7741 0.720581C19.9674 0.722002 20.1608 0.723422 20.36 0.724886C20.5299 0.724742 20.6999 0.724599 20.875 0.724451C21.3234 0.809798 21.3234 0.809798 21.7204 1.11444C22.0076 1.494 22.0076 1.494 22.0931 2.1782C22.0076 2.8624 22.0076 2.8624 21.7162 3.24201C21.3234 3.5466 21.3234 3.5466 20.4264 3.63074C20.0513 3.63403 19.6762 3.63397 19.3011 3.63124C18.8928 3.6352 18.4845 3.63921 18.0761 3.64326C17.433 3.64556 16.7899 3.64638 16.1468 3.64599C15.5257 3.64681 14.9047 3.65305 14.2836 3.65975C14.0921 3.65788 13.9006 3.65601 13.7033 3.65409C12.7786 3.66583 12.3141 3.70284 11.5146 4.20948C11.0509 4.65028 11.0509 4.65028 10.8323 5.14307C10.8079 5.66235 10.7969 6.18229 10.7922 6.70212C10.787 7.01869 10.7815 7.33525 10.7758 7.65181C10.7678 8.1508 10.7611 8.64967 10.758 9.14872C10.7545 9.63048 10.7453 10.1119 10.7352 10.5935C10.7319 10.882 10.7286 11.1706 10.7252 11.4678C10.6043 12.2132 10.6043 12.2132 10.1756 12.7634C9.692 13.1254 9.692 13.1254 9.12184 13.2395C8.55167 13.1254 8.55167 13.1254 8.06797 12.7625C7.6394 12.2132 7.6394 12.2132 7.51774 11.4758C7.51526 11.1894 7.51278 10.9029 7.51022 10.6078C7.50881 10.4525 7.50739 10.2972 7.50594 10.1372C7.50432 9.80864 7.50504 9.48006 7.50794 9.15151C7.51107 8.6557 7.50336 8.1609 7.49463 7.66517C7.48509 5.98427 7.6084 4.58134 8.44432 3.07989C9.39204 1.82097 10.9057 0.757064 12.5095 0.747158Z" fill="white"/>
<path d="M44.0159 19.6111C44.8141 19.7394 44.8141 19.7394 45.4841 20.1813C45.9543 20.8794 46.0429 21.1152 46.0828 21.9203C46.0419 22.6649 45.9877 22.888 45.5269 23.5025C45.0422 23.8446 45.0422 23.8446 44.5861 24.0726C44.468 24.5771 44.3723 25.0869 44.2867 25.5978C43.4787 29.9219 41.5292 33.5049 38.4283 36.6163C38.3144 36.7391 38.2006 36.8619 38.0833 36.9884C37.089 38.0366 36.0362 38.7811 34.7934 39.5099C34.6201 39.6147 34.4468 39.7195 34.2683 39.8275C33.7582 40.1329 33.2443 40.4294 32.7266 40.7215C32.4774 40.8634 32.4774 40.8634 32.2231 41.0081C32.0644 41.0937 31.9057 41.1794 31.7422 41.2676C31.532 41.3822 31.532 41.3822 31.3176 41.4991C30.9021 41.6338 30.9021 41.6338 30.3934 41.5427C30.2602 41.4975 30.127 41.4523 29.9898 41.4057C29.8769 40.8413 29.8769 40.8413 29.7617 40.2654C29.9934 40.1549 30.2251 40.0443 30.4637 39.9304C34.7157 37.8734 37.9908 35.4715 40.4809 31.3708C41.68 29.1648 42.9779 26.4116 42.7615 23.8446C42.6063 23.6705 42.4511 23.4965 42.2912 23.3172C41.8493 22.7042 41.8493 22.7042 41.7994 22.2089C41.8356 21.6549 41.9086 21.1807 42.0773 20.6516C42.6972 19.9041 43.0598 19.7647 44.0159 19.6111Z" fill="white"/>
<path d="M7.41087 7.42377C7.48613 7.42377 7.56139 7.42377 7.63893 7.42377C7.72401 8.17731 7.76203 8.73669 7.63893 9.47637C7.31041 10.0581 6.92154 10.5603 6.51553 11.0907C4.88923 13.3816 3.38588 16.4605 3.19163 19.2833C3.25345 19.9972 3.25345 19.9972 3.7618 20.5376C4.21793 21.1078 4.21793 21.1078 4.33196 21.906C4.21793 22.7043 4.21793 22.7043 3.89008 23.3599C3.29385 23.8544 3.03396 23.9679 2.29361 24.1012C1.48337 24.144 1.27741 24.0876 0.554603 23.645C0.0413415 22.8172 -0.0387206 22.3135 0.0138346 21.3563C0.112723 20.8797 0.112723 20.8797 0.540349 20.3096C1.02499 19.9675 1.02499 19.9675 1.48112 19.7394C1.60487 19.2689 1.70519 18.7922 1.79472 18.314C2.66852 14.0778 4.31455 10.5201 7.41087 7.42377Z" fill="white"/>
<path d="M29.9898 2.40625C31.9613 2.40625 33.5769 3.4134 35.1695 4.49616C37.67 6.27358 39.712 8.27183 41.3931 10.8447C41.615 11.1543 41.615 11.1543 41.8413 11.4701C42.3998 12.3642 42.7814 13.2709 43.1607 14.2515C43.2327 14.4277 43.3047 14.604 43.3789 14.7856C43.8074 15.8828 43.9834 16.7376 43.9019 17.9148C43.3374 18.0277 43.3374 18.0277 42.7615 18.1429C42.6675 17.8936 42.5734 17.6443 42.4765 17.3874C42.4127 17.2195 42.3489 17.0517 42.2831 16.8787C42.146 16.5053 42.0159 16.1292 41.8929 15.7508C40.6321 11.9685 38.3963 9.0294 35.3066 6.55422C34.0445 5.6395 32.6897 5.00083 31.2493 4.41893C30.764 4.21297 30.764 4.21297 29.9898 3.77465C29.7644 3.15103 29.7644 3.15103 29.7617 2.63432C29.837 2.55905 29.9122 2.48379 29.9898 2.40625Z" fill="white"/>
<path d="M2.16499 25.8972C2.5413 25.8972 2.91761 25.8972 3.30532 25.8972C3.40352 26.162 3.50171 26.4269 3.60288 26.6998C4.43928 28.9249 5.27388 31.0432 6.71207 32.953C7.60397 34.1654 7.60397 34.1654 7.76866 34.9753C7.76688 35.5472 7.76688 35.5472 7.6386 36.3882C5.16643 34.5309 3.4408 31.2884 2.39305 28.4059C2.13781 27.5491 2.1082 26.7868 2.16499 25.8972Z" fill="white"/>
<path d="M25.77 39.4529C26.5975 39.5859 27.0492 39.7567 27.7086 40.2654C28.1647 40.9496 28.1647 40.9496 28.2645 41.591C28.1632 42.3293 28.0734 42.5208 27.6231 43.0734C27.0244 43.6864 27.0244 43.6864 26.5683 43.9144C25.9411 44.0285 25.9411 44.0285 25.1999 43.9144C24.6176 43.4587 24.2074 42.953 23.8315 42.318C23.6747 41.6195 23.6747 41.6195 23.8315 40.9496C24.4002 40.0189 24.676 39.6287 25.77 39.4529Z" fill="white"/>
<path d="M16.7983 23.686C17.2179 23.8446 17.2179 23.8446 17.8023 24.3007C18.1345 24.994 18.1837 25.2798 18.1444 26.0255C18.0189 26.7712 17.9153 27.0216 17.4175 27.6219C16.7618 27.9498 16.7618 27.9498 15.9635 28.0923C15.1653 27.9498 15.1653 27.9498 14.4953 27.3796C14.0948 26.8148 13.9258 26.3449 13.8682 25.6548C14.025 24.7568 14.025 24.7568 14.5951 24.0584C15.3326 23.5428 15.9291 23.5025 16.7983 23.686Z" fill="white"/>
<path d="M25.4147 0.00888941C26.2433 -0.0367056 26.7276 0.0889588 27.4665 0.48195C27.9368 1.03786 27.9368 1.03786 28.1649 1.82184C28.1649 2.63433 28.1649 2.63433 27.8798 3.27577C27.4807 3.77467 27.4807 3.77467 26.7965 4.2308C26.1091 4.30718 25.6334 4.35882 24.972 4.2308C24.2719 3.63847 24.0872 3.17934 23.8174 2.30649C23.8316 1.494 23.8316 1.494 24.2735 0.710017C24.972 0.125596 24.972 0.125596 25.4147 0.00888941Z" fill="white"/>
<path d="M9.64675 14.8484C10.1474 14.95 10.1474 14.95 10.8459 15.4204C11.2878 16.0903 11.2878 16.0903 11.4161 16.8885C11.2878 17.6868 11.2878 17.6868 10.8601 18.3425C10.3755 18.8271 10.3755 18.8271 9.91936 19.0552C9.16389 19.1407 9.16389 19.1407 8.32289 19.0552C7.65295 18.6133 7.65295 18.6133 7.18256 17.9148C7.03763 17.2004 7.04382 16.5773 7.18256 15.8622C7.7584 14.8357 8.55145 14.7942 9.64675 14.8484Z" fill="white"/>
<path d="M62.9911 27.5H56.0906V7.13636H63.1303C65.1521 7.13636 66.8889 7.54403 68.3406 8.35938C69.7989 9.16809 70.9192 10.3314 71.7013 11.8494C72.4835 13.3674 72.8746 15.1837 72.8746 17.2983C72.8746 19.4195 72.4802 21.2424 71.6914 22.767C70.9092 24.2917 69.779 25.4616 68.3008 26.277C66.8292 27.0923 65.0593 27.5 62.9911 27.5ZM59.7795 24.3082H62.8121C64.2307 24.3082 65.4139 24.0497 66.3619 23.5327C67.3098 23.009 68.0224 22.2301 68.4996 21.196C68.9769 20.1553 69.2156 18.8561 69.2156 17.2983C69.2156 15.7405 68.9769 14.4479 68.4996 13.4205C68.0224 12.3864 67.3164 11.6141 66.3817 11.1037C65.4537 10.5866 64.3003 10.3281 62.9215 10.3281H59.7795V24.3082ZM82.9819 27.7983C81.4506 27.7983 80.1282 27.4801 79.0146 26.8438C77.9076 26.2008 77.0558 25.2926 76.4592 24.1193C75.8626 22.9394 75.5643 21.5507 75.5643 19.9531C75.5643 18.3821 75.8626 17.0033 76.4592 15.8168C77.0624 14.6236 77.9042 13.6955 78.9847 13.0327C80.0652 12.3632 81.3346 12.0284 82.793 12.0284C83.7343 12.0284 84.6225 12.1809 85.4577 12.4858C86.2996 12.7841 87.042 13.2481 87.685 13.8778C88.3346 14.5076 88.8451 15.3097 89.2163 16.2841C89.5875 17.2519 89.7731 18.4053 89.7731 19.7443V20.848H77.2546V18.4219H86.3228C86.3162 17.7325 86.167 17.1193 85.8754 16.5824C85.5837 16.0388 85.176 15.6113 84.6523 15.2997C84.1353 14.9882 83.5321 14.8324 82.8427 14.8324C82.1069 14.8324 81.4606 15.0114 80.9038 15.3693C80.3469 15.7206 79.9128 16.1847 79.6012 16.7614C79.2963 17.3314 79.1405 17.9579 79.1339 18.6406V20.7585C79.1339 21.6468 79.2963 22.4091 79.6211 23.0455C79.9459 23.6752 80.4 24.1591 80.9833 24.4972C81.5666 24.8286 82.2494 24.9943 83.0316 24.9943C83.5553 24.9943 84.0292 24.9214 84.4535 24.7756C84.8777 24.6231 85.2456 24.401 85.5572 24.1094C85.8687 23.8177 86.104 23.4564 86.2631 23.0256L89.6239 23.4034C89.4118 24.2917 89.0075 25.0672 88.4109 25.7301C87.8209 26.3864 87.0652 26.8968 86.1438 27.2614C85.2224 27.6193 84.1684 27.7983 82.9819 27.7983ZM99.4801 27.7983C97.9555 27.7983 96.6463 27.4635 95.5526 26.794C94.4654 26.1245 93.6269 25.1998 93.0369 24.0199C92.4536 22.8333 92.1619 21.4678 92.1619 19.9233C92.1619 18.3722 92.4602 17.0033 93.0568 15.8168C93.6534 14.6236 94.4953 13.6955 95.5824 13.0327C96.6761 12.3632 97.9688 12.0284 99.4602 12.0284C100.7 12.0284 101.797 12.2571 102.751 12.7145C103.713 13.1652 104.478 13.8049 105.048 14.6335C105.618 15.4555 105.943 16.4167 106.023 17.517H102.582C102.443 16.7812 102.112 16.1681 101.588 15.6776C101.071 15.1804 100.378 14.9318 99.5099 14.9318C98.7741 14.9318 98.1278 15.1307 97.571 15.5284C97.0142 15.9195 96.58 16.483 96.2685 17.2188C95.9635 17.9545 95.8111 18.8362 95.8111 19.8636C95.8111 20.9044 95.9635 21.7992 96.2685 22.5483C96.5734 23.2907 97.0009 23.8641 97.5511 24.2685C98.108 24.6662 98.7609 24.8651 99.5099 24.8651C100.04 24.8651 100.514 24.7656 100.932 24.5668C101.356 24.3613 101.711 24.0663 101.996 23.6818C102.281 23.2973 102.476 22.83 102.582 22.2798H106.023C105.937 23.3603 105.618 24.3182 105.068 25.1534C104.518 25.982 103.769 26.6316 102.821 27.1023C101.873 27.5663 100.759 27.7983 99.4801 27.7983ZM115.64 27.7983C114.149 27.7983 112.856 27.4702 111.762 26.8139C110.669 26.1577 109.82 25.2396 109.217 24.0597C108.62 22.8797 108.322 21.5009 108.322 19.9233C108.322 18.3456 108.62 16.9635 109.217 15.777C109.82 14.5904 110.669 13.669 111.762 13.0128C112.856 12.3565 114.149 12.0284 115.64 12.0284C117.132 12.0284 118.424 12.3565 119.518 13.0128C120.612 13.669 121.457 14.5904 122.054 15.777C122.657 16.9635 122.958 18.3456 122.958 19.9233C122.958 21.5009 122.657 22.8797 122.054 24.0597C121.457 25.2396 120.612 26.1577 119.518 26.8139C118.424 27.4702 117.132 27.7983 115.64 27.7983ZM115.66 24.9148C116.469 24.9148 117.145 24.6927 117.689 24.2486C118.232 23.7978 118.636 23.1946 118.902 22.4389C119.173 21.6832 119.309 20.8414 119.309 19.9134C119.309 18.9787 119.173 18.1335 118.902 17.3778C118.636 16.6155 118.232 16.009 117.689 15.5582C117.145 15.1075 116.469 14.8821 115.66 14.8821C114.832 14.8821 114.142 15.1075 113.592 15.5582C113.048 16.009 112.641 16.6155 112.369 17.3778C112.104 18.1335 111.971 18.9787 111.971 19.9134C111.971 20.8414 112.104 21.6832 112.369 22.4389C112.641 23.1946 113.048 23.7978 113.592 24.2486C114.142 24.6927 114.832 24.9148 115.66 24.9148ZM131.681 27.7685C130.481 27.7685 129.407 27.4602 128.46 26.8438C127.512 26.2273 126.763 25.3324 126.212 24.1591C125.662 22.9858 125.387 21.5606 125.387 19.8835C125.387 18.1866 125.665 16.7547 126.222 15.5881C126.786 14.4148 127.545 13.5298 128.499 12.9332C129.454 12.33 130.518 12.0284 131.691 12.0284C132.586 12.0284 133.322 12.1809 133.898 12.4858C134.475 12.7841 134.933 13.1454 135.271 13.5696C135.609 13.9872 135.871 14.3816 136.056 14.7528H136.205V7.13636H139.815V27.5H136.275V25.0938H136.056C135.871 25.465 135.602 25.8594 135.251 26.277C134.899 26.688 134.435 27.0393 133.859 27.331C133.282 27.6226 132.556 27.7685 131.681 27.7685ZM132.685 24.8153C133.448 24.8153 134.097 24.6098 134.634 24.1989C135.171 23.7812 135.579 23.2012 135.857 22.4588C136.136 21.7164 136.275 20.8513 136.275 19.8636C136.275 18.8759 136.136 18.0175 135.857 17.2884C135.585 16.5592 135.181 15.9924 134.644 15.5881C134.114 15.1837 133.461 14.9815 132.685 14.9815C131.883 14.9815 131.214 15.1903 130.677 15.608C130.14 16.0256 129.736 16.6023 129.464 17.3381C129.192 18.0739 129.056 18.9157 129.056 19.8636C129.056 20.8182 129.192 21.67 129.464 22.419C129.742 23.1615 130.15 23.7481 130.687 24.179C131.23 24.6032 131.897 24.8153 132.685 24.8153ZM150.412 27.7983C148.88 27.7983 147.558 27.4801 146.444 26.8438C145.337 26.2008 144.485 25.2926 143.889 24.1193C143.292 22.9394 142.994 21.5507 142.994 19.9531C142.994 18.3821 143.292 17.0033 143.889 15.8168C144.492 14.6236 145.334 13.6955 146.414 13.0327C147.495 12.3632 148.764 12.0284 150.223 12.0284C151.164 12.0284 152.052 12.1809 152.887 12.4858C153.729 12.7841 154.472 13.2481 155.115 13.8778C155.764 14.5076 156.275 15.3097 156.646 16.2841C157.017 17.2519 157.203 18.4053 157.203 19.7443V20.848H144.684V18.4219H153.752C153.746 17.7325 153.597 17.1193 153.305 16.5824C153.013 16.0388 152.606 15.6113 152.082 15.2997C151.565 14.9882 150.962 14.8324 150.272 14.8324C149.537 14.8324 148.89 15.0114 148.333 15.3693C147.777 15.7206 147.342 16.1847 147.031 16.7614C146.726 17.3314 146.57 17.9579 146.564 18.6406V20.7585C146.564 21.6468 146.726 22.4091 147.051 23.0455C147.376 23.6752 147.83 24.1591 148.413 24.4972C148.996 24.8286 149.679 24.9943 150.461 24.9943C150.985 24.9943 151.459 24.9214 151.883 24.7756C152.307 24.6231 152.675 24.401 152.987 24.1094C153.298 23.8177 153.534 23.4564 153.693 23.0256L157.054 23.4034C156.842 24.2917 156.437 25.0672 155.841 25.7301C155.251 26.3864 154.495 26.8968 153.574 27.2614C152.652 27.6193 151.598 27.7983 150.412 27.7983ZM160.248 27.5V12.2273H163.738V14.7727H163.897C164.175 13.8911 164.653 13.2116 165.329 12.7344C166.012 12.2505 166.79 12.0085 167.665 12.0085C167.864 12.0085 168.086 12.0185 168.332 12.0384C168.584 12.0516 168.792 12.0748 168.958 12.108V15.419C168.806 15.366 168.564 15.3196 168.232 15.2798C167.907 15.2334 167.593 15.2102 167.288 15.2102C166.631 15.2102 166.041 15.3527 165.518 15.6378C165.001 15.9162 164.593 16.304 164.295 16.8011C163.996 17.2983 163.847 17.8717 163.847 18.5213V27.5H160.248ZM171.151 27.5V25.2131L179.026 15.3395V15.2102H171.409V12.2273H183.43V14.6832L175.933 24.3878V24.517H183.689V27.5H171.151Z" fill="white"/>
<path d="M59.9116 33.9545C59.8604 33.5227 59.6531 33.1875 59.2894 32.9489C58.9258 32.7102 58.4798 32.5909 57.9513 32.5909C57.565 32.5909 57.2269 32.6534 56.9371 32.7784C56.6502 32.9034 56.4258 33.0753 56.2638 33.294C56.1048 33.5128 56.0252 33.7614 56.0252 34.0398C56.0252 34.2727 56.0806 34.473 56.1914 34.6406C56.305 34.8054 56.4499 34.9432 56.6261 35.054C56.8022 35.1619 56.9869 35.2514 57.18 35.3224C57.3732 35.3906 57.5508 35.446 57.7127 35.4886L58.5991 35.7273C58.8263 35.7869 59.0792 35.8693 59.3576 35.9744C59.6388 36.0795 59.9073 36.223 60.163 36.4048C60.4215 36.5838 60.6346 36.8139 60.8022 37.0952C60.9698 37.3764 61.0536 37.7216 61.0536 38.1307C61.0536 38.6023 60.93 39.0284 60.6829 39.4091C60.4386 39.7898 60.0806 40.0923 59.609 40.3168C59.1403 40.5412 58.5707 40.6534 57.9002 40.6534C57.2752 40.6534 56.734 40.5526 56.2766 40.3509C55.8221 40.1491 55.4641 39.8679 55.2028 39.5071C54.9442 39.1463 54.7979 38.7273 54.7638 38.25H55.8548C55.8832 38.5795 55.994 38.8523 56.1871 39.0682C56.3832 39.2812 56.6303 39.4403 56.9286 39.5455C57.2298 39.6477 57.5536 39.6989 57.9002 39.6989C58.3036 39.6989 58.6658 39.6335 58.9869 39.5028C59.3079 39.3693 59.5621 39.1847 59.7496 38.9489C59.9371 38.7102 60.0309 38.4318 60.0309 38.1136C60.0309 37.8239 59.9499 37.5881 59.788 37.4062C59.6261 37.2244 59.413 37.0767 59.1488 36.9631C58.8846 36.8494 58.5991 36.75 58.2923 36.6648L57.2184 36.358C56.5366 36.1619 55.9968 35.8821 55.5991 35.5185C55.2013 35.1548 55.0025 34.679 55.0025 34.0909C55.0025 33.6023 55.1346 33.1761 55.3988 32.8125C55.6658 32.446 56.0238 32.1619 56.4727 31.9602C56.9244 31.7557 57.4286 31.6534 57.9854 31.6534C58.5479 31.6534 59.0479 31.7543 59.4854 31.956C59.9229 32.1548 60.2695 32.4276 60.5252 32.7741C60.7837 33.1207 60.9201 33.5142 60.9343 33.9545H59.9116ZM65.3139 40.6364C64.723 40.6364 64.2045 40.4957 63.7585 40.2145C63.3153 39.9332 62.9688 39.5398 62.7188 39.0341C62.4716 38.5284 62.348 37.9375 62.348 37.2614C62.348 36.5795 62.4716 35.9844 62.7188 35.4759C62.9688 34.9673 63.3153 34.5724 63.7585 34.2912C64.2045 34.0099 64.723 33.8693 65.3139 33.8693C65.9048 33.8693 66.4219 34.0099 66.8651 34.2912C67.3111 34.5724 67.6577 34.9673 67.9048 35.4759C68.1548 35.9844 68.2798 36.5795 68.2798 37.2614C68.2798 37.9375 68.1548 38.5284 67.9048 39.0341C67.6577 39.5398 67.3111 39.9332 66.8651 40.2145C66.4219 40.4957 65.9048 40.6364 65.3139 40.6364ZM65.3139 39.733C65.7628 39.733 66.1321 39.6179 66.4219 39.3878C66.7116 39.1577 66.9261 38.8551 67.0653 38.4801C67.2045 38.1051 67.2741 37.6989 67.2741 37.2614C67.2741 36.8239 67.2045 36.4162 67.0653 36.0384C66.9261 35.6605 66.7116 35.3551 66.4219 35.1222C66.1321 34.8892 65.7628 34.7727 65.3139 34.7727C64.8651 34.7727 64.4957 34.8892 64.206 35.1222C63.9162 35.3551 63.7017 35.6605 63.5625 36.0384C63.4233 36.4162 63.3537 36.8239 63.3537 37.2614C63.3537 37.6989 63.4233 38.1051 63.5625 38.4801C63.7017 38.8551 63.9162 39.1577 64.206 39.3878C64.4957 39.6179 64.8651 39.733 65.3139 39.733ZM72.7298 33.9545V34.8068H69.2013V33.9545H72.7298ZM70.2582 40.5V33.0511C70.2582 32.6761 70.3462 32.3636 70.5224 32.1136C70.6985 31.8636 70.9272 31.6761 71.2085 31.5511C71.4897 31.4261 71.7866 31.3636 72.0991 31.3636C72.3462 31.3636 72.5479 31.3835 72.7042 31.4233C72.8604 31.4631 72.9769 31.5 73.0536 31.5341L72.7638 32.4034C72.7127 32.3864 72.6417 32.3651 72.5508 32.3395C72.4627 32.3139 72.3462 32.3011 72.2013 32.3011C71.869 32.3011 71.6289 32.3849 71.4812 32.5526C71.3363 32.7202 71.2638 32.9659 71.2638 33.2898V40.5H70.2582ZM76.9858 33.9545V34.8068H73.5938V33.9545H76.9858ZM74.5824 32.3864H75.5881V38.625C75.5881 38.9091 75.6293 39.1222 75.7116 39.2642C75.7969 39.4034 75.9048 39.4972 76.0355 39.5455C76.169 39.5909 76.3097 39.6136 76.4574 39.6136C76.5682 39.6136 76.6591 39.608 76.7301 39.5966C76.8011 39.5824 76.858 39.571 76.9006 39.5625L77.1051 40.4659C77.0369 40.4915 76.9418 40.517 76.8196 40.5426C76.6974 40.571 76.5426 40.5852 76.3551 40.5852C76.071 40.5852 75.7926 40.5241 75.5199 40.402C75.25 40.2798 75.0256 40.0938 74.8466 39.8438C74.6705 39.5938 74.5824 39.2784 74.5824 38.8977V32.3864ZM79.9815 40.5L77.9872 33.9545H79.044L80.4588 38.9659H80.527L81.9247 33.9545H82.9986L84.3793 38.9489H84.4474L85.8622 33.9545H86.919L84.9247 40.5H83.9361L82.5043 35.4716H82.402L80.9702 40.5H79.9815ZM90.1747 40.6534C89.7599 40.6534 89.3835 40.5753 89.0455 40.419C88.7074 40.2599 88.4389 40.0312 88.2401 39.733C88.0412 39.4318 87.9418 39.0682 87.9418 38.642C87.9418 38.267 88.0156 37.9631 88.1634 37.7301C88.3111 37.4943 88.5085 37.3097 88.7557 37.1761C89.0028 37.0426 89.2756 36.9432 89.5739 36.8778C89.875 36.8097 90.1776 36.7557 90.4815 36.7159C90.8793 36.6648 91.2017 36.6264 91.4489 36.6009C91.6989 36.5724 91.8807 36.5256 91.9943 36.4602C92.1108 36.3949 92.169 36.2812 92.169 36.1193V36.0852C92.169 35.6648 92.054 35.3381 91.8239 35.1051C91.5966 34.8722 91.2514 34.7557 90.7884 34.7557C90.3082 34.7557 89.9318 34.8608 89.6591 35.071C89.3864 35.2812 89.1946 35.5057 89.0838 35.7443L88.1293 35.4034C88.2997 35.0057 88.527 34.696 88.8111 34.4744C89.098 34.25 89.4105 34.0937 89.7486 34.0057C90.0895 33.9148 90.4247 33.8693 90.7543 33.8693C90.9645 33.8693 91.206 33.8949 91.4787 33.946C91.7543 33.9943 92.0199 34.0952 92.2756 34.2486C92.5341 34.402 92.7486 34.6335 92.919 34.9432C93.0895 35.2528 93.1747 35.6676 93.1747 36.1875V40.5H92.169V39.6136H92.1179C92.0497 39.7557 91.9361 39.9077 91.777 40.0696C91.6179 40.2315 91.4063 40.3693 91.142 40.483C90.8778 40.5966 90.5554 40.6534 90.1747 40.6534ZM90.3281 39.75C90.7259 39.75 91.0611 39.6719 91.3338 39.5156C91.6094 39.3594 91.8168 39.1577 91.956 38.9105C92.098 38.6634 92.169 38.4034 92.169 38.1307V37.2102C92.1264 37.2614 92.0327 37.3082 91.8878 37.3509C91.7457 37.3906 91.581 37.4261 91.3935 37.4574C91.2088 37.4858 91.0284 37.5114 90.8523 37.5341C90.679 37.554 90.5384 37.571 90.4304 37.5852C90.169 37.6193 89.9247 37.6747 89.6974 37.7514C89.473 37.8253 89.2912 37.9375 89.152 38.0881C89.0156 38.2358 88.9474 38.4375 88.9474 38.6932C88.9474 39.0426 89.0767 39.3068 89.3352 39.4858C89.5966 39.6619 89.9276 39.75 90.3281 39.75ZM95.0103 40.5V33.9545H95.9819V34.9432H96.0501C96.1694 34.6193 96.3853 34.3565 96.6978 34.1548C97.0103 33.9531 97.3626 33.8523 97.7546 33.8523C97.8285 33.8523 97.9208 33.8537 98.0316 33.8565C98.1424 33.8594 98.2262 33.8636 98.283 33.8693V34.892C98.2489 34.8835 98.1708 34.8707 98.0487 34.8537C97.9293 34.8338 97.8029 34.8239 97.6694 34.8239C97.3512 34.8239 97.0671 34.8906 96.8171 35.0241C96.57 35.1548 96.3739 35.3366 96.229 35.5696C96.087 35.7997 96.016 36.0625 96.016 36.358V40.5H95.0103ZM102.02 40.6364C101.39 40.6364 100.846 40.4972 100.388 40.2188C99.9336 39.9375 99.5827 39.5455 99.3356 39.0426C99.0913 38.5369 98.9691 37.9489 98.9691 37.2784C98.9691 36.608 99.0913 36.017 99.3356 35.5057C99.5827 34.9915 99.9265 34.5909 100.367 34.304C100.81 34.0142 101.327 33.8693 101.918 33.8693C102.259 33.8693 102.596 33.9261 102.928 34.0398C103.26 34.1534 103.563 34.3381 103.836 34.5938C104.108 34.8466 104.326 35.1818 104.488 35.5994C104.65 36.017 104.73 36.5312 104.73 37.142V37.5682H99.685V36.6989H103.708C103.708 36.3295 103.634 36 103.486 35.7102C103.341 35.4205 103.134 35.1918 102.864 35.0241C102.597 34.8565 102.282 34.7727 101.918 34.7727C101.517 34.7727 101.171 34.8722 100.878 35.071C100.588 35.267 100.365 35.5227 100.209 35.8381C100.053 36.1534 99.9748 36.4915 99.9748 36.8523V37.4318C99.9748 37.9261 100.06 38.3452 100.23 38.6889C100.404 39.0298 100.644 39.2898 100.951 39.4688C101.257 39.6449 101.614 39.733 102.02 39.733C102.284 39.733 102.523 39.696 102.736 39.6222C102.952 39.5455 103.138 39.4318 103.294 39.2812C103.451 39.1278 103.571 38.9375 103.657 38.7102L104.628 38.983C104.526 39.3125 104.354 39.6023 104.113 39.8523C103.871 40.0994 103.573 40.2926 103.218 40.4318C102.863 40.5682 102.463 40.6364 102.02 40.6364ZM112.107 40.6193C111.533 40.6193 111.039 40.5142 110.624 40.304C110.209 40.0937 109.89 39.8054 109.665 39.4389C109.441 39.0724 109.328 38.6534 109.328 38.1818C109.328 37.8182 109.405 37.4957 109.559 37.2145C109.715 36.9304 109.929 36.6676 110.202 36.4261C110.478 36.1818 110.794 35.9375 111.152 35.6932L112.414 34.7557C112.661 34.5937 112.858 34.4205 113.006 34.2358C113.157 34.0511 113.232 33.8097 113.232 33.5114C113.232 33.2898 113.134 33.0753 112.938 32.8679C112.745 32.6605 112.49 32.5568 112.175 32.5568C111.953 32.5568 111.757 32.6136 111.587 32.7273C111.419 32.8381 111.287 32.9801 111.191 33.1534C111.097 33.3239 111.05 33.5 111.05 33.6818C111.05 33.8864 111.105 34.0938 111.216 34.304C111.33 34.5114 111.473 34.7244 111.647 34.9432C111.823 35.1591 112.005 35.3807 112.192 35.608L116.198 40.5H114.988L111.681 36.5114C111.374 36.142 111.096 35.8068 110.846 35.5057C110.596 35.2045 110.397 34.9077 110.249 34.6151C110.101 34.3224 110.027 34.0057 110.027 33.6648C110.027 33.2727 110.114 32.929 110.287 32.6335C110.463 32.3352 110.709 32.1037 111.025 31.9389C111.343 31.7713 111.715 31.6875 112.141 31.6875C112.578 31.6875 112.955 31.7727 113.27 31.9432C113.586 32.1108 113.828 32.3338 113.999 32.6122C114.169 32.8878 114.255 33.1875 114.255 33.5114C114.255 33.929 114.151 34.2912 113.944 34.598C113.736 34.9048 113.453 35.1903 113.096 35.4545L111.357 36.75C110.965 37.0398 110.699 37.321 110.56 37.5938C110.421 37.8665 110.351 38.0625 110.351 38.1818C110.351 38.4545 110.422 38.7088 110.564 38.9446C110.706 39.1804 110.907 39.3707 111.165 39.5156C111.424 39.6605 111.726 39.733 112.073 39.733C112.402 39.733 112.723 39.6634 113.036 39.5241C113.348 39.3821 113.631 39.1776 113.884 38.9105C114.14 38.6435 114.341 38.3224 114.489 37.9474C114.64 37.5724 114.715 37.1506 114.715 36.6818H115.686C115.686 37.2614 115.62 37.7344 115.486 38.1009C115.353 38.4673 115.202 38.7543 115.034 38.9616C114.867 39.169 114.732 39.3239 114.63 39.4261C114.596 39.4687 114.564 39.5114 114.536 39.554C114.507 39.5966 114.476 39.6392 114.442 39.6818C114.161 39.9972 113.806 40.233 113.377 40.3892C112.948 40.5426 112.525 40.6193 112.107 40.6193ZM121.18 40.5H120.072L123.277 31.7727H124.368L127.572 40.5H126.464L123.857 33.1534H123.788L121.18 40.5ZM121.589 37.0909H126.055V38.0284H121.589V37.0909ZM129.989 31.7727V40.5H128.932V31.7727H129.989ZM140.255 33.9545C140.204 33.5227 139.997 33.1875 139.633 32.9489C139.27 32.7102 138.824 32.5909 138.295 32.5909C137.909 32.5909 137.571 32.6534 137.281 32.7784C136.994 32.9034 136.77 33.0753 136.608 33.294C136.449 33.5128 136.369 33.7614 136.369 34.0398C136.369 34.2727 136.424 34.473 136.535 34.6406C136.649 34.8054 136.794 34.9432 136.97 35.054C137.146 35.1619 137.331 35.2514 137.524 35.3224C137.717 35.3906 137.895 35.446 138.056 35.4886L138.943 35.7273C139.17 35.7869 139.423 35.8693 139.701 35.9744C139.983 36.0795 140.251 36.223 140.507 36.4048C140.765 36.5838 140.978 36.8139 141.146 37.0952C141.314 37.3764 141.397 37.7216 141.397 38.1307C141.397 38.6023 141.274 39.0284 141.027 39.4091C140.782 39.7898 140.424 40.0923 139.953 40.3168C139.484 40.5412 138.914 40.6534 138.244 40.6534C137.619 40.6534 137.078 40.5526 136.62 40.3509C136.166 40.1491 135.808 39.8679 135.547 39.5071C135.288 39.1463 135.142 38.7273 135.108 38.25H136.199C136.227 38.5795 136.338 38.8523 136.531 39.0682C136.727 39.2812 136.974 39.4403 137.272 39.5455C137.574 39.6477 137.897 39.6989 138.244 39.6989C138.647 39.6989 139.01 39.6335 139.331 39.5028C139.652 39.3693 139.906 39.1847 140.093 38.9489C140.281 38.7102 140.375 38.4318 140.375 38.1136C140.375 37.8239 140.294 37.5881 140.132 37.4062C139.97 37.2244 139.757 37.0767 139.493 36.9631C139.228 36.8494 138.943 36.75 138.636 36.6648L137.562 36.358C136.88 36.1619 136.341 35.8821 135.943 35.5185C135.545 35.1548 135.346 34.679 135.346 34.0909C135.346 33.6023 135.478 33.1761 135.743 32.8125C136.01 32.446 136.368 32.1619 136.816 31.9602C137.268 31.7557 137.772 31.6534 138.329 31.6534C138.892 31.6534 139.392 31.7543 139.829 31.956C140.267 32.1548 140.613 32.4276 140.869 32.7741C141.127 33.1207 141.264 33.5142 141.278 33.9545H140.255ZM145.658 40.6364C145.067 40.6364 144.548 40.4957 144.102 40.2145C143.659 39.9332 143.312 39.5398 143.062 39.0341C142.815 38.5284 142.692 37.9375 142.692 37.2614C142.692 36.5795 142.815 35.9844 143.062 35.4759C143.312 34.9673 143.659 34.5724 144.102 34.2912C144.548 34.0099 145.067 33.8693 145.658 33.8693C146.249 33.8693 146.766 34.0099 147.209 34.2912C147.655 34.5724 148.001 34.9673 148.249 35.4759C148.499 35.9844 148.624 36.5795 148.624 37.2614C148.624 37.9375 148.499 38.5284 148.249 39.0341C148.001 39.5398 147.655 39.9332 147.209 40.2145C146.766 40.4957 146.249 40.6364 145.658 40.6364ZM145.658 39.733C146.107 39.733 146.476 39.6179 146.766 39.3878C147.055 39.1577 147.27 38.8551 147.409 38.4801C147.548 38.1051 147.618 37.6989 147.618 37.2614C147.618 36.8239 147.548 36.4162 147.409 36.0384C147.27 35.6605 147.055 35.3551 146.766 35.1222C146.476 34.8892 146.107 34.7727 145.658 34.7727C145.209 34.7727 144.839 34.8892 144.55 35.1222C144.26 35.3551 144.045 35.6605 143.906 36.0384C143.767 36.4162 143.697 36.8239 143.697 37.2614C143.697 37.6989 143.767 38.1051 143.906 38.4801C144.045 38.8551 144.26 39.1577 144.55 39.3878C144.839 39.6179 145.209 39.733 145.658 39.733ZM151.164 31.7727V40.5H150.159V31.7727H151.164ZM157.131 37.8239V33.9545H158.137V40.5H157.131V39.392H157.063C156.91 39.7244 156.671 40.0071 156.347 40.2401C156.023 40.4702 155.614 40.5852 155.12 40.5852C154.711 40.5852 154.347 40.4957 154.029 40.3168C153.711 40.1349 153.461 39.8622 153.279 39.4986C153.097 39.1321 153.006 38.6705 153.006 38.1136V33.9545H154.012V38.0455C154.012 38.5227 154.146 38.9034 154.413 39.1875C154.683 39.4716 155.026 39.6136 155.444 39.6136C155.694 39.6136 155.948 39.5497 156.207 39.4219C156.468 39.294 156.687 39.098 156.863 38.8338C157.042 38.5696 157.131 38.233 157.131 37.8239ZM162.826 33.9545V34.8068H159.434V33.9545H162.826ZM160.422 32.3864H161.428V38.625C161.428 38.9091 161.469 39.1222 161.551 39.2642C161.637 39.4034 161.745 39.4972 161.875 39.5455C162.009 39.5909 162.15 39.6136 162.297 39.6136C162.408 39.6136 162.499 39.608 162.57 39.5966C162.641 39.5824 162.698 39.571 162.74 39.5625L162.945 40.4659C162.877 40.4915 162.782 40.517 162.659 40.5426C162.537 40.571 162.382 40.5852 162.195 40.5852C161.911 40.5852 161.632 40.5241 161.36 40.402C161.09 40.2798 160.865 40.0938 160.686 39.8438C160.51 39.5938 160.422 39.2784 160.422 38.8977V32.3864ZM164.338 40.5V33.9545H165.344V40.5H164.338ZM164.85 32.8636C164.654 32.8636 164.485 32.7969 164.343 32.6634C164.203 32.5298 164.134 32.3693 164.134 32.1818C164.134 31.9943 164.203 31.8338 164.343 31.7003C164.485 31.5668 164.654 31.5 164.85 31.5C165.046 31.5 165.213 31.5668 165.353 31.7003C165.495 31.8338 165.566 31.9943 165.566 32.1818C165.566 32.3693 165.495 32.5298 165.353 32.6634C165.213 32.7969 165.046 32.8636 164.85 32.8636ZM169.845 40.6364C169.254 40.6364 168.736 40.4957 168.29 40.2145C167.847 39.9332 167.5 39.5398 167.25 39.0341C167.003 38.5284 166.879 37.9375 166.879 37.2614C166.879 36.5795 167.003 35.9844 167.25 35.4759C167.5 34.9673 167.847 34.5724 168.29 34.2912C168.736 34.0099 169.254 33.8693 169.845 33.8693C170.436 33.8693 170.953 34.0099 171.396 34.2912C171.842 34.5724 172.189 34.9673 172.436 35.4759C172.686 35.9844 172.811 36.5795 172.811 37.2614C172.811 37.9375 172.686 38.5284 172.436 39.0341C172.189 39.5398 171.842 39.9332 171.396 40.2145C170.953 40.4957 170.436 40.6364 169.845 40.6364ZM169.845 39.733C170.294 39.733 170.663 39.6179 170.953 39.3878C171.243 39.1577 171.457 38.8551 171.597 38.4801C171.736 38.1051 171.805 37.6989 171.805 37.2614C171.805 36.8239 171.736 36.4162 171.597 36.0384C171.457 35.6605 171.243 35.3551 170.953 35.1222C170.663 34.8892 170.294 34.7727 169.845 34.7727C169.396 34.7727 169.027 34.8892 168.737 35.1222C168.447 35.3551 168.233 35.6605 168.094 36.0384C167.955 36.4162 167.885 36.8239 167.885 37.2614C167.885 37.6989 167.955 38.1051 168.094 38.4801C168.233 38.8551 168.447 39.1577 168.737 39.3878C169.027 39.6179 169.396 39.733 169.845 39.733ZM175.352 36.5625V40.5H174.346V33.9545H175.318V34.9773H175.403C175.556 34.6449 175.789 34.3778 176.102 34.1761C176.414 33.9716 176.818 33.8693 177.312 33.8693C177.755 33.8693 178.143 33.9602 178.475 34.142C178.808 34.321 179.066 34.5938 179.251 34.9602C179.436 35.3239 179.528 35.7841 179.528 36.3409V40.5H178.522V36.4091C178.522 35.8949 178.389 35.4943 178.122 35.2074C177.855 34.9176 177.488 34.7727 177.022 34.7727C176.701 34.7727 176.414 34.8423 176.162 34.9815C175.912 35.1207 175.714 35.3239 175.569 35.5909C175.424 35.858 175.352 36.1818 175.352 36.5625ZM186.002 35.4205L185.099 35.6761C185.042 35.5256 184.958 35.3793 184.847 35.2372C184.739 35.0923 184.592 34.973 184.404 34.8793C184.217 34.7855 183.977 34.7386 183.684 34.7386C183.283 34.7386 182.95 34.831 182.683 35.0156C182.418 35.1974 182.286 35.429 182.286 35.7102C182.286 35.9602 182.377 36.1577 182.559 36.3026C182.741 36.4474 183.025 36.5682 183.411 36.6648L184.383 36.9034C184.968 37.0455 185.404 37.2628 185.691 37.5554C185.978 37.8452 186.121 38.2187 186.121 38.6761C186.121 39.0511 186.013 39.3864 185.798 39.6818C185.585 39.9773 185.286 40.2102 184.903 40.3807C184.519 40.5511 184.073 40.6364 183.565 40.6364C182.897 40.6364 182.344 40.4915 181.907 40.2017C181.469 39.9119 181.192 39.4886 181.076 38.9318L182.031 38.6932C182.121 39.0455 182.293 39.3097 182.546 39.4858C182.802 39.6619 183.136 39.75 183.548 39.75C184.016 39.75 184.388 39.6506 184.664 39.4517C184.942 39.25 185.082 39.0085 185.082 38.7273C185.082 38.5 185.002 38.3097 184.843 38.1562C184.684 38 184.44 37.8835 184.11 37.8068L183.019 37.5511C182.42 37.4091 181.979 37.1889 181.698 36.8906C181.42 36.5895 181.281 36.2131 181.281 35.7614C181.281 35.392 181.384 35.0653 181.592 34.7812C181.802 34.4972 182.087 34.2741 182.448 34.1122C182.812 33.9503 183.224 33.8693 183.684 33.8693C184.332 33.8693 184.84 34.0114 185.21 34.2955C185.582 34.5795 185.846 34.9545 186.002 35.4205Z" fill="white"/>
</svg>
