<svg width="28" height="28" viewBox="0 0 28 28" fill="none" xmlns="http://www.w3.org/2000/svg">
<path d="M16.0183 4.09508L18.0717 8.20174C18.3517 8.77341 19.0983 9.32174 19.7283 9.42674L23.45 10.0451C25.83 10.4417 26.39 12.1684 24.675 13.8717L21.7817 16.7651C21.2917 17.2551 21.0233 18.2001 21.175 18.8767L22.0033 22.4584C22.6567 25.2934 21.1517 26.3901 18.6433 24.9084L15.155 22.8434C14.525 22.4701 13.4867 22.4701 12.845 22.8434L9.35668 24.9084C6.86001 26.3901 5.34335 25.2817 5.99668 22.4584L6.82501 18.8767C6.97668 18.2001 6.70835 17.2551 6.21835 16.7651L3.32501 13.8717C1.62168 12.1684 2.17001 10.4417 4.55001 10.0451L8.27168 9.42674C8.89001 9.32174 9.63668 8.77341 9.91668 8.20174L11.97 4.09508C13.09 1.86674 14.91 1.86674 16.0183 4.09508Z" fill="#FEC640" stroke="#FEC640" stroke-linecap="round" stroke-linejoin="round"/>
</svg>
